<mxfile host="app.diagrams.net" modified="2024-03-12T14:53:27.057Z" agent="Mozilla/5.0 (Windows NT 10.0; Win64; x64) AppleWebKit/537.36 (KHTML, like Gecko) Chrome/122.0.0.0 Safari/537.36" etag="a9RRd4nxhpTZSkQfjKNo" version="24.0.4" type="device">
  <diagram name="Сторінка-1" id="ue85llHuyC8gprGW6xpb">
    <mxGraphModel dx="830" dy="3870" grid="1" gridSize="10" guides="1" tooltips="1" connect="1" arrows="1" fold="1" page="1" pageScale="1" pageWidth="827" pageHeight="1169" math="0" shadow="0">
      <root>
        <mxCell id="0" />
        <mxCell id="1" parent="0" />
        <mxCell id="ogL9IN2SmqmJOzdBA25b-115" value="FinancialData" style="swimlane;fontStyle=1;align=center;verticalAlign=top;childLayout=stackLayout;horizontal=1;startSize=26;horizontalStack=0;resizeParent=1;resizeParentMax=0;resizeLast=0;collapsible=1;marginBottom=0;whiteSpace=wrap;html=1;" parent="1" vertex="1">
          <mxGeometry x="40" y="-1340" width="190" height="476" as="geometry" />
        </mxCell>
        <mxCell id="ogL9IN2SmqmJOzdBA25b-126" value="- volume: int" style="text;strokeColor=none;fillColor=none;align=left;verticalAlign=top;spacingLeft=4;spacingRight=4;overflow=hidden;rotatable=0;points=[[0,0.5],[1,0.5]];portConstraint=eastwest;whiteSpace=wrap;html=1;" parent="ogL9IN2SmqmJOzdBA25b-115" vertex="1">
          <mxGeometry y="26" width="190" height="26" as="geometry" />
        </mxCell>
        <mxCell id="ogL9IN2SmqmJOzdBA25b-125" value="- dateTime: DateTime" style="text;strokeColor=none;fillColor=none;align=left;verticalAlign=top;spacingLeft=4;spacingRight=4;overflow=hidden;rotatable=0;points=[[0,0.5],[1,0.5]];portConstraint=eastwest;whiteSpace=wrap;html=1;" parent="ogL9IN2SmqmJOzdBA25b-115" vertex="1">
          <mxGeometry y="52" width="190" height="26" as="geometry" />
        </mxCell>
        <mxCell id="ogL9IN2SmqmJOzdBA25b-124" value="- type: string" style="text;strokeColor=none;fillColor=none;align=left;verticalAlign=top;spacingLeft=4;spacingRight=4;overflow=hidden;rotatable=0;points=[[0,0.5],[1,0.5]];portConstraint=eastwest;whiteSpace=wrap;html=1;" parent="ogL9IN2SmqmJOzdBA25b-115" vertex="1">
          <mxGeometry y="78" width="190" height="26" as="geometry" />
        </mxCell>
        <mxCell id="ogL9IN2SmqmJOzdBA25b-123" value="- percentChange: double" style="text;strokeColor=none;fillColor=none;align=left;verticalAlign=top;spacingLeft=4;spacingRight=4;overflow=hidden;rotatable=0;points=[[0,0.5],[1,0.5]];portConstraint=eastwest;whiteSpace=wrap;html=1;" parent="ogL9IN2SmqmJOzdBA25b-115" vertex="1">
          <mxGeometry y="104" width="190" height="26" as="geometry" />
        </mxCell>
        <mxCell id="ogL9IN2SmqmJOzdBA25b-122" value="- change: double" style="text;strokeColor=none;fillColor=none;align=left;verticalAlign=top;spacingLeft=4;spacingRight=4;overflow=hidden;rotatable=0;points=[[0,0.5],[1,0.5]];portConstraint=eastwest;whiteSpace=wrap;html=1;" parent="ogL9IN2SmqmJOzdBA25b-115" vertex="1">
          <mxGeometry y="130" width="190" height="26" as="geometry" />
        </mxCell>
        <mxCell id="ogL9IN2SmqmJOzdBA25b-121" value="- price: double" style="text;strokeColor=none;fillColor=none;align=left;verticalAlign=top;spacingLeft=4;spacingRight=4;overflow=hidden;rotatable=0;points=[[0,0.5],[1,0.5]];portConstraint=eastwest;whiteSpace=wrap;html=1;" parent="ogL9IN2SmqmJOzdBA25b-115" vertex="1">
          <mxGeometry y="156" width="190" height="26" as="geometry" />
        </mxCell>
        <mxCell id="ogL9IN2SmqmJOzdBA25b-120" value="- name: string" style="text;strokeColor=none;fillColor=none;align=left;verticalAlign=top;spacingLeft=4;spacingRight=4;overflow=hidden;rotatable=0;points=[[0,0.5],[1,0.5]];portConstraint=eastwest;whiteSpace=wrap;html=1;" parent="ogL9IN2SmqmJOzdBA25b-115" vertex="1">
          <mxGeometry y="182" width="190" height="26" as="geometry" />
        </mxCell>
        <mxCell id="ogL9IN2SmqmJOzdBA25b-119" value="- symbol: string" style="text;strokeColor=none;fillColor=none;align=left;verticalAlign=top;spacingLeft=4;spacingRight=4;overflow=hidden;rotatable=0;points=[[0,0.5],[1,0.5]];portConstraint=eastwest;whiteSpace=wrap;html=1;" parent="ogL9IN2SmqmJOzdBA25b-115" vertex="1">
          <mxGeometry y="208" width="190" height="26" as="geometry" />
        </mxCell>
        <mxCell id="ogL9IN2SmqmJOzdBA25b-117" value="" style="line;strokeWidth=1;fillColor=none;align=left;verticalAlign=middle;spacingTop=-1;spacingLeft=3;spacingRight=3;rotatable=0;labelPosition=right;points=[];portConstraint=eastwest;strokeColor=inherit;" parent="ogL9IN2SmqmJOzdBA25b-115" vertex="1">
          <mxGeometry y="234" width="190" height="8" as="geometry" />
        </mxCell>
        <mxCell id="ogL9IN2SmqmJOzdBA25b-118" value="+ getVolume(): int" style="text;strokeColor=none;fillColor=none;align=left;verticalAlign=top;spacingLeft=4;spacingRight=4;overflow=hidden;rotatable=0;points=[[0,0.5],[1,0.5]];portConstraint=eastwest;whiteSpace=wrap;html=1;" parent="ogL9IN2SmqmJOzdBA25b-115" vertex="1">
          <mxGeometry y="242" width="190" height="26" as="geometry" />
        </mxCell>
        <mxCell id="ogL9IN2SmqmJOzdBA25b-127" value="+ getDateTime(): DateTime" style="text;strokeColor=none;fillColor=none;align=left;verticalAlign=top;spacingLeft=4;spacingRight=4;overflow=hidden;rotatable=0;points=[[0,0.5],[1,0.5]];portConstraint=eastwest;whiteSpace=wrap;html=1;" parent="ogL9IN2SmqmJOzdBA25b-115" vertex="1">
          <mxGeometry y="268" width="190" height="26" as="geometry" />
        </mxCell>
        <mxCell id="ogL9IN2SmqmJOzdBA25b-128" value="+ getType(): string" style="text;strokeColor=none;fillColor=none;align=left;verticalAlign=top;spacingLeft=4;spacingRight=4;overflow=hidden;rotatable=0;points=[[0,0.5],[1,0.5]];portConstraint=eastwest;whiteSpace=wrap;html=1;" parent="ogL9IN2SmqmJOzdBA25b-115" vertex="1">
          <mxGeometry y="294" width="190" height="26" as="geometry" />
        </mxCell>
        <mxCell id="ogL9IN2SmqmJOzdBA25b-129" value="+ getType(): string" style="text;strokeColor=none;fillColor=none;align=left;verticalAlign=top;spacingLeft=4;spacingRight=4;overflow=hidden;rotatable=0;points=[[0,0.5],[1,0.5]];portConstraint=eastwest;whiteSpace=wrap;html=1;" parent="ogL9IN2SmqmJOzdBA25b-115" vertex="1">
          <mxGeometry y="320" width="190" height="26" as="geometry" />
        </mxCell>
        <mxCell id="ogL9IN2SmqmJOzdBA25b-130" value="+ getPercentChange(): double" style="text;strokeColor=none;fillColor=none;align=left;verticalAlign=top;spacingLeft=4;spacingRight=4;overflow=hidden;rotatable=0;points=[[0,0.5],[1,0.5]];portConstraint=eastwest;whiteSpace=wrap;html=1;" parent="ogL9IN2SmqmJOzdBA25b-115" vertex="1">
          <mxGeometry y="346" width="190" height="26" as="geometry" />
        </mxCell>
        <mxCell id="ogL9IN2SmqmJOzdBA25b-131" value="+ getChange(): double" style="text;strokeColor=none;fillColor=none;align=left;verticalAlign=top;spacingLeft=4;spacingRight=4;overflow=hidden;rotatable=0;points=[[0,0.5],[1,0.5]];portConstraint=eastwest;whiteSpace=wrap;html=1;" parent="ogL9IN2SmqmJOzdBA25b-115" vertex="1">
          <mxGeometry y="372" width="190" height="26" as="geometry" />
        </mxCell>
        <mxCell id="ogL9IN2SmqmJOzdBA25b-132" value="+ getPrice(): double" style="text;strokeColor=none;fillColor=none;align=left;verticalAlign=top;spacingLeft=4;spacingRight=4;overflow=hidden;rotatable=0;points=[[0,0.5],[1,0.5]];portConstraint=eastwest;whiteSpace=wrap;html=1;" parent="ogL9IN2SmqmJOzdBA25b-115" vertex="1">
          <mxGeometry y="398" width="190" height="26" as="geometry" />
        </mxCell>
        <mxCell id="ogL9IN2SmqmJOzdBA25b-133" value="+ getName(): string" style="text;strokeColor=none;fillColor=none;align=left;verticalAlign=top;spacingLeft=4;spacingRight=4;overflow=hidden;rotatable=0;points=[[0,0.5],[1,0.5]];portConstraint=eastwest;whiteSpace=wrap;html=1;" parent="ogL9IN2SmqmJOzdBA25b-115" vertex="1">
          <mxGeometry y="424" width="190" height="26" as="geometry" />
        </mxCell>
        <mxCell id="ogL9IN2SmqmJOzdBA25b-134" value="+ getSymbol(): string" style="text;strokeColor=none;fillColor=none;align=left;verticalAlign=top;spacingLeft=4;spacingRight=4;overflow=hidden;rotatable=0;points=[[0,0.5],[1,0.5]];portConstraint=eastwest;whiteSpace=wrap;html=1;" parent="ogL9IN2SmqmJOzdBA25b-115" vertex="1">
          <mxGeometry y="450" width="190" height="26" as="geometry" />
        </mxCell>
        <mxCell id="ogL9IN2SmqmJOzdBA25b-135" value="Currency" style="swimlane;fontStyle=1;align=center;verticalAlign=top;childLayout=stackLayout;horizontal=1;startSize=26;horizontalStack=0;resizeParent=1;resizeParentMax=0;resizeLast=0;collapsible=1;marginBottom=0;whiteSpace=wrap;html=1;" parent="1" vertex="1">
          <mxGeometry x="314" y="-1380" width="200" height="138" as="geometry" />
        </mxCell>
        <mxCell id="ogL9IN2SmqmJOzdBA25b-140" value="- country: string" style="text;strokeColor=none;fillColor=none;align=left;verticalAlign=top;spacingLeft=4;spacingRight=4;overflow=hidden;rotatable=0;points=[[0,0.5],[1,0.5]];portConstraint=eastwest;whiteSpace=wrap;html=1;" parent="ogL9IN2SmqmJOzdBA25b-135" vertex="1">
          <mxGeometry y="26" width="200" height="26" as="geometry" />
        </mxCell>
        <mxCell id="ogL9IN2SmqmJOzdBA25b-139" value="- exchangeRate: double" style="text;strokeColor=none;fillColor=none;align=left;verticalAlign=top;spacingLeft=4;spacingRight=4;overflow=hidden;rotatable=0;points=[[0,0.5],[1,0.5]];portConstraint=eastwest;whiteSpace=wrap;html=1;" parent="ogL9IN2SmqmJOzdBA25b-135" vertex="1">
          <mxGeometry y="52" width="200" height="26" as="geometry" />
        </mxCell>
        <mxCell id="ogL9IN2SmqmJOzdBA25b-137" value="" style="line;strokeWidth=1;fillColor=none;align=left;verticalAlign=middle;spacingTop=-1;spacingLeft=3;spacingRight=3;rotatable=0;labelPosition=right;points=[];portConstraint=eastwest;strokeColor=inherit;" parent="ogL9IN2SmqmJOzdBA25b-135" vertex="1">
          <mxGeometry y="78" width="200" height="8" as="geometry" />
        </mxCell>
        <mxCell id="ogL9IN2SmqmJOzdBA25b-138" value="+ getExchangeRate(): double" style="text;strokeColor=none;fillColor=none;align=left;verticalAlign=top;spacingLeft=4;spacingRight=4;overflow=hidden;rotatable=0;points=[[0,0.5],[1,0.5]];portConstraint=eastwest;whiteSpace=wrap;html=1;" parent="ogL9IN2SmqmJOzdBA25b-135" vertex="1">
          <mxGeometry y="86" width="200" height="26" as="geometry" />
        </mxCell>
        <mxCell id="ogL9IN2SmqmJOzdBA25b-141" value="+ getCountry(): string" style="text;strokeColor=none;fillColor=none;align=left;verticalAlign=top;spacingLeft=4;spacingRight=4;overflow=hidden;rotatable=0;points=[[0,0.5],[1,0.5]];portConstraint=eastwest;whiteSpace=wrap;html=1;" parent="ogL9IN2SmqmJOzdBA25b-135" vertex="1">
          <mxGeometry y="112" width="200" height="26" as="geometry" />
        </mxCell>
        <mxCell id="ogL9IN2SmqmJOzdBA25b-142" value="Stock" style="swimlane;fontStyle=1;align=center;verticalAlign=top;childLayout=stackLayout;horizontal=1;startSize=26;horizontalStack=0;resizeParent=1;resizeParentMax=0;resizeLast=0;collapsible=1;marginBottom=0;whiteSpace=wrap;html=1;" parent="1" vertex="1">
          <mxGeometry x="310" y="-1180" width="200" height="190" as="geometry" />
        </mxCell>
        <mxCell id="ogL9IN2SmqmJOzdBA25b-148" value="- stockType: string" style="text;strokeColor=none;fillColor=none;align=left;verticalAlign=top;spacingLeft=4;spacingRight=4;overflow=hidden;rotatable=0;points=[[0,0.5],[1,0.5]];portConstraint=eastwest;whiteSpace=wrap;html=1;" parent="ogL9IN2SmqmJOzdBA25b-142" vertex="1">
          <mxGeometry y="26" width="200" height="26" as="geometry" />
        </mxCell>
        <mxCell id="ogL9IN2SmqmJOzdBA25b-147" value="- exchangeInfo: string" style="text;strokeColor=none;fillColor=none;align=left;verticalAlign=top;spacingLeft=4;spacingRight=4;overflow=hidden;rotatable=0;points=[[0,0.5],[1,0.5]];portConstraint=eastwest;whiteSpace=wrap;html=1;" parent="ogL9IN2SmqmJOzdBA25b-142" vertex="1">
          <mxGeometry y="52" width="200" height="26" as="geometry" />
        </mxCell>
        <mxCell id="ogL9IN2SmqmJOzdBA25b-146" value="- marketCap: double" style="text;strokeColor=none;fillColor=none;align=left;verticalAlign=top;spacingLeft=4;spacingRight=4;overflow=hidden;rotatable=0;points=[[0,0.5],[1,0.5]];portConstraint=eastwest;whiteSpace=wrap;html=1;" parent="ogL9IN2SmqmJOzdBA25b-142" vertex="1">
          <mxGeometry y="78" width="200" height="26" as="geometry" />
        </mxCell>
        <mxCell id="ogL9IN2SmqmJOzdBA25b-144" value="" style="line;strokeWidth=1;fillColor=none;align=left;verticalAlign=middle;spacingTop=-1;spacingLeft=3;spacingRight=3;rotatable=0;labelPosition=right;points=[];portConstraint=eastwest;strokeColor=inherit;" parent="ogL9IN2SmqmJOzdBA25b-142" vertex="1">
          <mxGeometry y="104" width="200" height="8" as="geometry" />
        </mxCell>
        <mxCell id="ogL9IN2SmqmJOzdBA25b-145" value="+ getStockType(): string" style="text;strokeColor=none;fillColor=none;align=left;verticalAlign=top;spacingLeft=4;spacingRight=4;overflow=hidden;rotatable=0;points=[[0,0.5],[1,0.5]];portConstraint=eastwest;whiteSpace=wrap;html=1;" parent="ogL9IN2SmqmJOzdBA25b-142" vertex="1">
          <mxGeometry y="112" width="200" height="26" as="geometry" />
        </mxCell>
        <mxCell id="ogL9IN2SmqmJOzdBA25b-149" value="+ getExchangeInfo(): string" style="text;strokeColor=none;fillColor=none;align=left;verticalAlign=top;spacingLeft=4;spacingRight=4;overflow=hidden;rotatable=0;points=[[0,0.5],[1,0.5]];portConstraint=eastwest;whiteSpace=wrap;html=1;" parent="ogL9IN2SmqmJOzdBA25b-142" vertex="1">
          <mxGeometry y="138" width="200" height="26" as="geometry" />
        </mxCell>
        <mxCell id="ogL9IN2SmqmJOzdBA25b-150" value="+ getMarketCap(): double" style="text;strokeColor=none;fillColor=none;align=left;verticalAlign=top;spacingLeft=4;spacingRight=4;overflow=hidden;rotatable=0;points=[[0,0.5],[1,0.5]];portConstraint=eastwest;whiteSpace=wrap;html=1;" parent="ogL9IN2SmqmJOzdBA25b-142" vertex="1">
          <mxGeometry y="164" width="200" height="26" as="geometry" />
        </mxCell>
        <mxCell id="ogL9IN2SmqmJOzdBA25b-151" value="Cryptocurrency" style="swimlane;fontStyle=1;align=center;verticalAlign=top;childLayout=stackLayout;horizontal=1;startSize=26;horizontalStack=0;resizeParent=1;resizeParentMax=0;resizeLast=0;collapsible=1;marginBottom=0;whiteSpace=wrap;html=1;" parent="1" vertex="1">
          <mxGeometry x="310" y="-970" width="200" height="138" as="geometry" />
        </mxCell>
        <mxCell id="ogL9IN2SmqmJOzdBA25b-155" value="- volatility: double" style="text;strokeColor=none;fillColor=none;align=left;verticalAlign=top;spacingLeft=4;spacingRight=4;overflow=hidden;rotatable=0;points=[[0,0.5],[1,0.5]];portConstraint=eastwest;whiteSpace=wrap;html=1;" parent="ogL9IN2SmqmJOzdBA25b-151" vertex="1">
          <mxGeometry y="26" width="200" height="26" as="geometry" />
        </mxCell>
        <mxCell id="ogL9IN2SmqmJOzdBA25b-156" value="- blockchain: string" style="text;strokeColor=none;fillColor=none;align=left;verticalAlign=top;spacingLeft=4;spacingRight=4;overflow=hidden;rotatable=0;points=[[0,0.5],[1,0.5]];portConstraint=eastwest;whiteSpace=wrap;html=1;" parent="ogL9IN2SmqmJOzdBA25b-151" vertex="1">
          <mxGeometry y="52" width="200" height="26" as="geometry" />
        </mxCell>
        <mxCell id="ogL9IN2SmqmJOzdBA25b-153" value="" style="line;strokeWidth=1;fillColor=none;align=left;verticalAlign=middle;spacingTop=-1;spacingLeft=3;spacingRight=3;rotatable=0;labelPosition=right;points=[];portConstraint=eastwest;strokeColor=inherit;" parent="ogL9IN2SmqmJOzdBA25b-151" vertex="1">
          <mxGeometry y="78" width="200" height="8" as="geometry" />
        </mxCell>
        <mxCell id="ogL9IN2SmqmJOzdBA25b-154" value="+ getVolatility(): double" style="text;strokeColor=none;fillColor=none;align=left;verticalAlign=top;spacingLeft=4;spacingRight=4;overflow=hidden;rotatable=0;points=[[0,0.5],[1,0.5]];portConstraint=eastwest;whiteSpace=wrap;html=1;" parent="ogL9IN2SmqmJOzdBA25b-151" vertex="1">
          <mxGeometry y="86" width="200" height="26" as="geometry" />
        </mxCell>
        <mxCell id="ogL9IN2SmqmJOzdBA25b-157" value="+ getBlockchain(): string" style="text;strokeColor=none;fillColor=none;align=left;verticalAlign=top;spacingLeft=4;spacingRight=4;overflow=hidden;rotatable=0;points=[[0,0.5],[1,0.5]];portConstraint=eastwest;whiteSpace=wrap;html=1;" parent="ogL9IN2SmqmJOzdBA25b-151" vertex="1">
          <mxGeometry y="112" width="200" height="26" as="geometry" />
        </mxCell>
        <mxCell id="ogL9IN2SmqmJOzdBA25b-158" value="Extends" style="endArrow=block;endSize=16;endFill=0;html=1;rounded=0;entryX=1.018;entryY=-0.077;entryDx=0;entryDy=0;exitX=0.01;exitY=0.038;exitDx=0;exitDy=0;exitPerimeter=0;entryPerimeter=0;" parent="1" source="ogL9IN2SmqmJOzdBA25b-138" target="ogL9IN2SmqmJOzdBA25b-125" edge="1">
          <mxGeometry width="160" relative="1" as="geometry">
            <mxPoint x="270" y="-1210" as="sourcePoint" />
            <mxPoint x="337" y="-1281" as="targetPoint" />
          </mxGeometry>
        </mxCell>
        <mxCell id="ogL9IN2SmqmJOzdBA25b-159" value="Extends" style="endArrow=block;endSize=16;endFill=0;html=1;rounded=0;entryX=1.011;entryY=-0.115;entryDx=0;entryDy=0;exitX=0;exitY=0.962;exitDx=0;exitDy=0;exitPerimeter=0;entryPerimeter=0;" parent="1" source="ogL9IN2SmqmJOzdBA25b-146" target="ogL9IN2SmqmJOzdBA25b-127" edge="1">
          <mxGeometry width="160" relative="1" as="geometry">
            <mxPoint x="342" y="-1000" as="sourcePoint" />
            <mxPoint x="250" y="-911" as="targetPoint" />
          </mxGeometry>
        </mxCell>
        <mxCell id="ogL9IN2SmqmJOzdBA25b-160" value="Extends" style="endArrow=block;endSize=16;endFill=0;html=1;rounded=0;entryX=1;entryY=0.5;entryDx=0;entryDy=0;exitX=0.005;exitY=0.962;exitDx=0;exitDy=0;exitPerimeter=0;" parent="1" source="ogL9IN2SmqmJOzdBA25b-156" target="ogL9IN2SmqmJOzdBA25b-132" edge="1">
          <mxGeometry width="160" relative="1" as="geometry">
            <mxPoint x="342" y="-1103" as="sourcePoint" />
            <mxPoint x="250" y="-1014" as="targetPoint" />
          </mxGeometry>
        </mxCell>
        <mxCell id="ogL9IN2SmqmJOzdBA25b-165" value="UserResponse" style="swimlane;fontStyle=1;align=center;verticalAlign=top;childLayout=stackLayout;horizontal=1;startSize=26;horizontalStack=0;resizeParent=1;resizeParentMax=0;resizeLast=0;collapsible=1;marginBottom=0;whiteSpace=wrap;html=1;" parent="1" vertex="1">
          <mxGeometry x="1010" y="-1520" width="160" height="242" as="geometry" />
        </mxCell>
        <mxCell id="ogL9IN2SmqmJOzdBA25b-169" value="- id: int" style="text;strokeColor=none;fillColor=none;align=left;verticalAlign=top;spacingLeft=4;spacingRight=4;overflow=hidden;rotatable=0;points=[[0,0.5],[1,0.5]];portConstraint=eastwest;whiteSpace=wrap;html=1;" parent="ogL9IN2SmqmJOzdBA25b-165" vertex="1">
          <mxGeometry y="26" width="160" height="26" as="geometry" />
        </mxCell>
        <mxCell id="ogL9IN2SmqmJOzdBA25b-207" value="- type: string" style="text;strokeColor=none;fillColor=none;align=left;verticalAlign=top;spacingLeft=4;spacingRight=4;overflow=hidden;rotatable=0;points=[[0,0.5],[1,0.5]];portConstraint=eastwest;whiteSpace=wrap;html=1;" parent="ogL9IN2SmqmJOzdBA25b-165" vertex="1">
          <mxGeometry y="52" width="160" height="26" as="geometry" />
        </mxCell>
        <mxCell id="ogL9IN2SmqmJOzdBA25b-171" value="- url: string" style="text;strokeColor=none;fillColor=none;align=left;verticalAlign=top;spacingLeft=4;spacingRight=4;overflow=hidden;rotatable=0;points=[[0,0.5],[1,0.5]];portConstraint=eastwest;whiteSpace=wrap;html=1;" parent="ogL9IN2SmqmJOzdBA25b-165" vertex="1">
          <mxGeometry y="78" width="160" height="26" as="geometry" />
        </mxCell>
        <mxCell id="ogL9IN2SmqmJOzdBA25b-170" value="- body: string" style="text;strokeColor=none;fillColor=none;align=left;verticalAlign=top;spacingLeft=4;spacingRight=4;overflow=hidden;rotatable=0;points=[[0,0.5],[1,0.5]];portConstraint=eastwest;whiteSpace=wrap;html=1;" parent="ogL9IN2SmqmJOzdBA25b-165" vertex="1">
          <mxGeometry y="104" width="160" height="26" as="geometry" />
        </mxCell>
        <mxCell id="ogL9IN2SmqmJOzdBA25b-167" value="" style="line;strokeWidth=1;fillColor=none;align=left;verticalAlign=middle;spacingTop=-1;spacingLeft=3;spacingRight=3;rotatable=0;labelPosition=right;points=[];portConstraint=eastwest;strokeColor=inherit;" parent="ogL9IN2SmqmJOzdBA25b-165" vertex="1">
          <mxGeometry y="130" width="160" height="8" as="geometry" />
        </mxCell>
        <mxCell id="ogL9IN2SmqmJOzdBA25b-168" value="+ getId(): int" style="text;strokeColor=none;fillColor=none;align=left;verticalAlign=top;spacingLeft=4;spacingRight=4;overflow=hidden;rotatable=0;points=[[0,0.5],[1,0.5]];portConstraint=eastwest;whiteSpace=wrap;html=1;" parent="ogL9IN2SmqmJOzdBA25b-165" vertex="1">
          <mxGeometry y="138" width="160" height="26" as="geometry" />
        </mxCell>
        <mxCell id="ogL9IN2SmqmJOzdBA25b-208" value="+ getType(): string" style="text;strokeColor=none;fillColor=none;align=left;verticalAlign=top;spacingLeft=4;spacingRight=4;overflow=hidden;rotatable=0;points=[[0,0.5],[1,0.5]];portConstraint=eastwest;whiteSpace=wrap;html=1;" parent="ogL9IN2SmqmJOzdBA25b-165" vertex="1">
          <mxGeometry y="164" width="160" height="26" as="geometry" />
        </mxCell>
        <mxCell id="ogL9IN2SmqmJOzdBA25b-172" value="+ getUrl(): string" style="text;strokeColor=none;fillColor=none;align=left;verticalAlign=top;spacingLeft=4;spacingRight=4;overflow=hidden;rotatable=0;points=[[0,0.5],[1,0.5]];portConstraint=eastwest;whiteSpace=wrap;html=1;" parent="ogL9IN2SmqmJOzdBA25b-165" vertex="1">
          <mxGeometry y="190" width="160" height="26" as="geometry" />
        </mxCell>
        <mxCell id="ogL9IN2SmqmJOzdBA25b-173" value="+ getBody(): string" style="text;strokeColor=none;fillColor=none;align=left;verticalAlign=top;spacingLeft=4;spacingRight=4;overflow=hidden;rotatable=0;points=[[0,0.5],[1,0.5]];portConstraint=eastwest;whiteSpace=wrap;html=1;" parent="ogL9IN2SmqmJOzdBA25b-165" vertex="1">
          <mxGeometry y="216" width="160" height="26" as="geometry" />
        </mxCell>
        <mxCell id="ogL9IN2SmqmJOzdBA25b-174" value="UserRequest" style="swimlane;fontStyle=1;align=center;verticalAlign=top;childLayout=stackLayout;horizontal=1;startSize=26;horizontalStack=0;resizeParent=1;resizeParentMax=0;resizeLast=0;collapsible=1;marginBottom=0;whiteSpace=wrap;html=1;" parent="1" vertex="1">
          <mxGeometry x="600" y="-1520" width="160" height="242" as="geometry" />
        </mxCell>
        <mxCell id="ogL9IN2SmqmJOzdBA25b-175" value="- id: int" style="text;strokeColor=none;fillColor=none;align=left;verticalAlign=top;spacingLeft=4;spacingRight=4;overflow=hidden;rotatable=0;points=[[0,0.5],[1,0.5]];portConstraint=eastwest;whiteSpace=wrap;html=1;" parent="ogL9IN2SmqmJOzdBA25b-174" vertex="1">
          <mxGeometry y="26" width="160" height="26" as="geometry" />
        </mxCell>
        <mxCell id="ogL9IN2SmqmJOzdBA25b-205" value="- type: string" style="text;strokeColor=none;fillColor=none;align=left;verticalAlign=top;spacingLeft=4;spacingRight=4;overflow=hidden;rotatable=0;points=[[0,0.5],[1,0.5]];portConstraint=eastwest;whiteSpace=wrap;html=1;" parent="ogL9IN2SmqmJOzdBA25b-174" vertex="1">
          <mxGeometry y="52" width="160" height="26" as="geometry" />
        </mxCell>
        <mxCell id="ogL9IN2SmqmJOzdBA25b-176" value="- url: string" style="text;strokeColor=none;fillColor=none;align=left;verticalAlign=top;spacingLeft=4;spacingRight=4;overflow=hidden;rotatable=0;points=[[0,0.5],[1,0.5]];portConstraint=eastwest;whiteSpace=wrap;html=1;" parent="ogL9IN2SmqmJOzdBA25b-174" vertex="1">
          <mxGeometry y="78" width="160" height="26" as="geometry" />
        </mxCell>
        <mxCell id="ogL9IN2SmqmJOzdBA25b-177" value="- body: string" style="text;strokeColor=none;fillColor=none;align=left;verticalAlign=top;spacingLeft=4;spacingRight=4;overflow=hidden;rotatable=0;points=[[0,0.5],[1,0.5]];portConstraint=eastwest;whiteSpace=wrap;html=1;" parent="ogL9IN2SmqmJOzdBA25b-174" vertex="1">
          <mxGeometry y="104" width="160" height="26" as="geometry" />
        </mxCell>
        <mxCell id="ogL9IN2SmqmJOzdBA25b-178" value="" style="line;strokeWidth=1;fillColor=none;align=left;verticalAlign=middle;spacingTop=-1;spacingLeft=3;spacingRight=3;rotatable=0;labelPosition=right;points=[];portConstraint=eastwest;strokeColor=inherit;" parent="ogL9IN2SmqmJOzdBA25b-174" vertex="1">
          <mxGeometry y="130" width="160" height="8" as="geometry" />
        </mxCell>
        <mxCell id="ogL9IN2SmqmJOzdBA25b-179" value="+ getId(): int" style="text;strokeColor=none;fillColor=none;align=left;verticalAlign=top;spacingLeft=4;spacingRight=4;overflow=hidden;rotatable=0;points=[[0,0.5],[1,0.5]];portConstraint=eastwest;whiteSpace=wrap;html=1;" parent="ogL9IN2SmqmJOzdBA25b-174" vertex="1">
          <mxGeometry y="138" width="160" height="26" as="geometry" />
        </mxCell>
        <mxCell id="ogL9IN2SmqmJOzdBA25b-206" value="+ getType(): string" style="text;strokeColor=none;fillColor=none;align=left;verticalAlign=top;spacingLeft=4;spacingRight=4;overflow=hidden;rotatable=0;points=[[0,0.5],[1,0.5]];portConstraint=eastwest;whiteSpace=wrap;html=1;" parent="ogL9IN2SmqmJOzdBA25b-174" vertex="1">
          <mxGeometry y="164" width="160" height="26" as="geometry" />
        </mxCell>
        <mxCell id="ogL9IN2SmqmJOzdBA25b-180" value="+ getUrl(): string" style="text;strokeColor=none;fillColor=none;align=left;verticalAlign=top;spacingLeft=4;spacingRight=4;overflow=hidden;rotatable=0;points=[[0,0.5],[1,0.5]];portConstraint=eastwest;whiteSpace=wrap;html=1;" parent="ogL9IN2SmqmJOzdBA25b-174" vertex="1">
          <mxGeometry y="190" width="160" height="26" as="geometry" />
        </mxCell>
        <mxCell id="ogL9IN2SmqmJOzdBA25b-181" value="+ getBody(): string" style="text;strokeColor=none;fillColor=none;align=left;verticalAlign=top;spacingLeft=4;spacingRight=4;overflow=hidden;rotatable=0;points=[[0,0.5],[1,0.5]];portConstraint=eastwest;whiteSpace=wrap;html=1;" parent="ogL9IN2SmqmJOzdBA25b-174" vertex="1">
          <mxGeometry y="216" width="160" height="26" as="geometry" />
        </mxCell>
        <mxCell id="ogL9IN2SmqmJOzdBA25b-182" value="UserRequestController" style="swimlane;fontStyle=1;align=center;verticalAlign=top;childLayout=stackLayout;horizontal=1;startSize=26;horizontalStack=0;resizeParent=1;resizeParentMax=0;resizeLast=0;collapsible=1;marginBottom=0;whiteSpace=wrap;html=1;" parent="1" vertex="1">
          <mxGeometry x="570" y="-1210" width="420" height="160" as="geometry" />
        </mxCell>
        <mxCell id="ogL9IN2SmqmJOzdBA25b-183" value="- requests: List&amp;lt;UserRequest&amp;gt;" style="text;strokeColor=none;fillColor=none;align=left;verticalAlign=top;spacingLeft=4;spacingRight=4;overflow=hidden;rotatable=0;points=[[0,0.5],[1,0.5]];portConstraint=eastwest;whiteSpace=wrap;html=1;" parent="ogL9IN2SmqmJOzdBA25b-182" vertex="1">
          <mxGeometry y="26" width="420" height="22" as="geometry" />
        </mxCell>
        <mxCell id="ogL9IN2SmqmJOzdBA25b-184" value="" style="line;strokeWidth=1;fillColor=none;align=left;verticalAlign=middle;spacingTop=-1;spacingLeft=3;spacingRight=3;rotatable=0;labelPosition=right;points=[];portConstraint=eastwest;strokeColor=inherit;" parent="ogL9IN2SmqmJOzdBA25b-182" vertex="1">
          <mxGeometry y="48" width="420" height="8" as="geometry" />
        </mxCell>
        <mxCell id="ogL9IN2SmqmJOzdBA25b-187" value="+ getRequests(): List&amp;lt;UserRequest&amp;gt;" style="text;strokeColor=none;fillColor=none;align=left;verticalAlign=top;spacingLeft=4;spacingRight=4;overflow=hidden;rotatable=0;points=[[0,0.5],[1,0.5]];portConstraint=eastwest;whiteSpace=wrap;html=1;" parent="ogL9IN2SmqmJOzdBA25b-182" vertex="1">
          <mxGeometry y="56" width="420" height="26" as="geometry" />
        </mxCell>
        <mxCell id="ogL9IN2SmqmJOzdBA25b-185" value="+ validateRequest(UserRequest request): bool" style="text;strokeColor=none;fillColor=none;align=left;verticalAlign=top;spacingLeft=4;spacingRight=4;overflow=hidden;rotatable=0;points=[[0,0.5],[1,0.5]];portConstraint=eastwest;whiteSpace=wrap;html=1;" parent="ogL9IN2SmqmJOzdBA25b-182" vertex="1">
          <mxGeometry y="82" width="420" height="26" as="geometry" />
        </mxCell>
        <mxCell id="ogL9IN2SmqmJOzdBA25b-186" value="+ processRequest(UserRequest request): UserResponse" style="text;strokeColor=none;fillColor=none;align=left;verticalAlign=top;spacingLeft=4;spacingRight=4;overflow=hidden;rotatable=0;points=[[0,0.5],[1,0.5]];portConstraint=eastwest;whiteSpace=wrap;html=1;" parent="ogL9IN2SmqmJOzdBA25b-182" vertex="1">
          <mxGeometry y="108" width="420" height="26" as="geometry" />
        </mxCell>
        <mxCell id="ogL9IN2SmqmJOzdBA25b-188" value="- getRequestedFinancialDataFrom Body(string body): List&amp;lt;FinancialData&amp;gt;" style="text;strokeColor=none;fillColor=none;align=left;verticalAlign=top;spacingLeft=4;spacingRight=4;overflow=hidden;rotatable=0;points=[[0,0.5],[1,0.5]];portConstraint=eastwest;whiteSpace=wrap;html=1;" parent="ogL9IN2SmqmJOzdBA25b-182" vertex="1">
          <mxGeometry y="134" width="420" height="26" as="geometry" />
        </mxCell>
        <mxCell id="ogL9IN2SmqmJOzdBA25b-189" value="" style="endArrow=open;endFill=1;endSize=12;html=1;rounded=0;exitX=0.979;exitY=-0.012;exitDx=0;exitDy=0;exitPerimeter=0;entryX=0.206;entryY=1.038;entryDx=0;entryDy=0;entryPerimeter=0;" parent="1" source="ogL9IN2SmqmJOzdBA25b-182" target="ogL9IN2SmqmJOzdBA25b-173" edge="1">
          <mxGeometry width="160" relative="1" as="geometry">
            <mxPoint x="298" y="-300" as="sourcePoint" />
            <mxPoint x="190" y="-390" as="targetPoint" />
          </mxGeometry>
        </mxCell>
        <mxCell id="ogL9IN2SmqmJOzdBA25b-190" value="return response" style="edgeLabel;html=1;align=center;verticalAlign=middle;resizable=0;points=[];" parent="ogL9IN2SmqmJOzdBA25b-189" vertex="1" connectable="0">
          <mxGeometry x="-0.0279" y="-1" relative="1" as="geometry">
            <mxPoint as="offset" />
          </mxGeometry>
        </mxCell>
        <mxCell id="ogL9IN2SmqmJOzdBA25b-191" value="*" style="edgeLabel;html=1;align=center;verticalAlign=middle;resizable=0;points=[];" parent="ogL9IN2SmqmJOzdBA25b-189" vertex="1" connectable="0">
          <mxGeometry x="0.7842" relative="1" as="geometry">
            <mxPoint x="14" as="offset" />
          </mxGeometry>
        </mxCell>
        <mxCell id="ogL9IN2SmqmJOzdBA25b-192" value="1" style="edgeLabel;html=1;align=center;verticalAlign=middle;resizable=0;points=[];" parent="ogL9IN2SmqmJOzdBA25b-189" vertex="1" connectable="0">
          <mxGeometry x="-0.8363" y="-2" relative="1" as="geometry">
            <mxPoint x="-15" y="-12" as="offset" />
          </mxGeometry>
        </mxCell>
        <mxCell id="ogL9IN2SmqmJOzdBA25b-193" value="" style="endArrow=open;endFill=1;endSize=12;html=1;rounded=0;exitX=0.5;exitY=1;exitDx=0;exitDy=0;entryX=0.379;entryY=-0.003;entryDx=0;entryDy=0;entryPerimeter=0;" parent="1" source="ogL9IN2SmqmJOzdBA25b-174" target="ogL9IN2SmqmJOzdBA25b-182" edge="1">
          <mxGeometry width="160" relative="1" as="geometry">
            <mxPoint x="400" y="-390" as="sourcePoint" />
            <mxPoint x="341" y="-271" as="targetPoint" />
          </mxGeometry>
        </mxCell>
        <mxCell id="ogL9IN2SmqmJOzdBA25b-194" value="do request" style="edgeLabel;html=1;align=center;verticalAlign=middle;resizable=0;points=[];" parent="ogL9IN2SmqmJOzdBA25b-193" vertex="1" connectable="0">
          <mxGeometry x="-0.0279" y="-1" relative="1" as="geometry">
            <mxPoint as="offset" />
          </mxGeometry>
        </mxCell>
        <mxCell id="ogL9IN2SmqmJOzdBA25b-195" value="*" style="edgeLabel;html=1;align=center;verticalAlign=middle;resizable=0;points=[];" parent="ogL9IN2SmqmJOzdBA25b-193" vertex="1" connectable="0">
          <mxGeometry x="-0.8384" relative="1" as="geometry">
            <mxPoint x="13" y="4" as="offset" />
          </mxGeometry>
        </mxCell>
        <mxCell id="ogL9IN2SmqmJOzdBA25b-196" value="1" style="edgeLabel;html=1;align=center;verticalAlign=middle;resizable=0;points=[];" parent="ogL9IN2SmqmJOzdBA25b-193" vertex="1" connectable="0">
          <mxGeometry x="0.6051" y="2" relative="1" as="geometry">
            <mxPoint x="21" y="2" as="offset" />
          </mxGeometry>
        </mxCell>
        <mxCell id="ogL9IN2SmqmJOzdBA25b-197" value="DisplayInfoController" style="swimlane;fontStyle=1;align=center;verticalAlign=top;childLayout=stackLayout;horizontal=1;startSize=26;horizontalStack=0;resizeParent=1;resizeParentMax=0;resizeLast=0;collapsible=1;marginBottom=0;whiteSpace=wrap;html=1;" parent="1" vertex="1">
          <mxGeometry x="745" y="-1028" width="400" height="164" as="geometry" />
        </mxCell>
        <mxCell id="ogL9IN2SmqmJOzdBA25b-198" value="- responses: List&amp;lt;UserResponse&amp;gt;" style="text;strokeColor=none;fillColor=none;align=left;verticalAlign=top;spacingLeft=4;spacingRight=4;overflow=hidden;rotatable=0;points=[[0,0.5],[1,0.5]];portConstraint=eastwest;whiteSpace=wrap;html=1;" parent="ogL9IN2SmqmJOzdBA25b-197" vertex="1">
          <mxGeometry y="26" width="400" height="26" as="geometry" />
        </mxCell>
        <mxCell id="ogL9IN2SmqmJOzdBA25b-199" value="" style="line;strokeWidth=1;fillColor=none;align=left;verticalAlign=middle;spacingTop=-1;spacingLeft=3;spacingRight=3;rotatable=0;labelPosition=right;points=[];portConstraint=eastwest;strokeColor=inherit;" parent="ogL9IN2SmqmJOzdBA25b-197" vertex="1">
          <mxGeometry y="52" width="400" height="8" as="geometry" />
        </mxCell>
        <mxCell id="ogL9IN2SmqmJOzdBA25b-200" value="+ getResponses(): List&amp;lt;UserResponse&amp;gt;" style="text;strokeColor=none;fillColor=none;align=left;verticalAlign=top;spacingLeft=4;spacingRight=4;overflow=hidden;rotatable=0;points=[[0,0.5],[1,0.5]];portConstraint=eastwest;whiteSpace=wrap;html=1;" parent="ogL9IN2SmqmJOzdBA25b-197" vertex="1">
          <mxGeometry y="60" width="400" height="26" as="geometry" />
        </mxCell>
        <mxCell id="ogL9IN2SmqmJOzdBA25b-201" value="+ validateResponse(UserResponse response): bool" style="text;strokeColor=none;fillColor=none;align=left;verticalAlign=top;spacingLeft=4;spacingRight=4;overflow=hidden;rotatable=0;points=[[0,0.5],[1,0.5]];portConstraint=eastwest;whiteSpace=wrap;html=1;" parent="ogL9IN2SmqmJOzdBA25b-197" vertex="1">
          <mxGeometry y="86" width="400" height="26" as="geometry" />
        </mxCell>
        <mxCell id="ogL9IN2SmqmJOzdBA25b-202" value="+ processResponse(UserResponse response): UserResponse" style="text;strokeColor=none;fillColor=none;align=left;verticalAlign=top;spacingLeft=4;spacingRight=4;overflow=hidden;rotatable=0;points=[[0,0.5],[1,0.5]];portConstraint=eastwest;whiteSpace=wrap;html=1;" parent="ogL9IN2SmqmJOzdBA25b-197" vertex="1">
          <mxGeometry y="112" width="400" height="26" as="geometry" />
        </mxCell>
        <mxCell id="ogL9IN2SmqmJOzdBA25b-203" value="+ displayResponsesInfo(List&amp;lt;UserReponses&amp;gt; responses): none" style="text;strokeColor=none;fillColor=none;align=left;verticalAlign=top;spacingLeft=4;spacingRight=4;overflow=hidden;rotatable=0;points=[[0,0.5],[1,0.5]];portConstraint=eastwest;whiteSpace=wrap;html=1;" parent="ogL9IN2SmqmJOzdBA25b-197" vertex="1">
          <mxGeometry y="138" width="400" height="26" as="geometry" />
        </mxCell>
        <mxCell id="ogL9IN2SmqmJOzdBA25b-209" value="" style="endArrow=open;endFill=1;endSize=12;html=1;rounded=0;exitX=0.725;exitY=1.038;exitDx=0;exitDy=0;entryX=0.94;entryY=0.006;entryDx=0;entryDy=0;entryPerimeter=0;exitPerimeter=0;" parent="1" source="ogL9IN2SmqmJOzdBA25b-173" target="ogL9IN2SmqmJOzdBA25b-197" edge="1">
          <mxGeometry width="160" relative="1" as="geometry">
            <mxPoint x="480" y="-420" as="sourcePoint" />
            <mxPoint x="565" y="-368" as="targetPoint" />
          </mxGeometry>
        </mxCell>
        <mxCell id="ogL9IN2SmqmJOzdBA25b-210" value="to display" style="edgeLabel;html=1;align=center;verticalAlign=middle;resizable=0;points=[];" parent="ogL9IN2SmqmJOzdBA25b-209" vertex="1" connectable="0">
          <mxGeometry x="-0.0279" y="-1" relative="1" as="geometry">
            <mxPoint as="offset" />
          </mxGeometry>
        </mxCell>
        <mxCell id="ogL9IN2SmqmJOzdBA25b-211" value="*" style="edgeLabel;html=1;align=center;verticalAlign=middle;resizable=0;points=[];" parent="ogL9IN2SmqmJOzdBA25b-209" vertex="1" connectable="0">
          <mxGeometry x="-0.8384" relative="1" as="geometry">
            <mxPoint x="13" y="4" as="offset" />
          </mxGeometry>
        </mxCell>
        <mxCell id="ogL9IN2SmqmJOzdBA25b-212" value="1" style="edgeLabel;html=1;align=center;verticalAlign=middle;resizable=0;points=[];" parent="ogL9IN2SmqmJOzdBA25b-209" vertex="1" connectable="0">
          <mxGeometry x="0.6051" y="2" relative="1" as="geometry">
            <mxPoint x="21" y="2" as="offset" />
          </mxGeometry>
        </mxCell>
        <mxCell id="ogL9IN2SmqmJOzdBA25b-213" value="FinancialDataRepository" style="swimlane;fontStyle=1;align=center;verticalAlign=top;childLayout=stackLayout;horizontal=1;startSize=26;horizontalStack=0;resizeParent=1;resizeParentMax=0;resizeLast=0;collapsible=1;marginBottom=0;whiteSpace=wrap;html=1;" parent="1" vertex="1">
          <mxGeometry x="70" y="-1610" width="450" height="164" as="geometry" />
        </mxCell>
        <mxCell id="ogL9IN2SmqmJOzdBA25b-214" value="- financialData: List&amp;lt;FinancialData&amp;gt;" style="text;strokeColor=none;fillColor=none;align=left;verticalAlign=top;spacingLeft=4;spacingRight=4;overflow=hidden;rotatable=0;points=[[0,0.5],[1,0.5]];portConstraint=eastwest;whiteSpace=wrap;html=1;" parent="ogL9IN2SmqmJOzdBA25b-213" vertex="1">
          <mxGeometry y="26" width="450" height="26" as="geometry" />
        </mxCell>
        <mxCell id="ogL9IN2SmqmJOzdBA25b-215" value="" style="line;strokeWidth=1;fillColor=none;align=left;verticalAlign=middle;spacingTop=-1;spacingLeft=3;spacingRight=3;rotatable=0;labelPosition=right;points=[];portConstraint=eastwest;strokeColor=inherit;" parent="ogL9IN2SmqmJOzdBA25b-213" vertex="1">
          <mxGeometry y="52" width="450" height="8" as="geometry" />
        </mxCell>
        <mxCell id="ogL9IN2SmqmJOzdBA25b-216" value="+ getFinancialData(): List&amp;lt;FinancialData&amp;gt;" style="text;strokeColor=none;fillColor=none;align=left;verticalAlign=top;spacingLeft=4;spacingRight=4;overflow=hidden;rotatable=0;points=[[0,0.5],[1,0.5]];portConstraint=eastwest;whiteSpace=wrap;html=1;" parent="ogL9IN2SmqmJOzdBA25b-213" vertex="1">
          <mxGeometry y="60" width="450" height="26" as="geometry" />
        </mxCell>
        <mxCell id="ogL9IN2SmqmJOzdBA25b-219" value="+ getAllFinancialData(): List&amp;lt;FinancialData&amp;gt;" style="text;strokeColor=none;fillColor=none;align=left;verticalAlign=top;spacingLeft=4;spacingRight=4;overflow=hidden;rotatable=0;points=[[0,0.5],[1,0.5]];portConstraint=eastwest;whiteSpace=wrap;html=1;" parent="ogL9IN2SmqmJOzdBA25b-213" vertex="1">
          <mxGeometry y="86" width="450" height="26" as="geometry" />
        </mxCell>
        <mxCell id="ogL9IN2SmqmJOzdBA25b-218" value="+ getFinancialDataByDateTime(DateTime dateTime): List&amp;lt;FinancialData&amp;gt;" style="text;strokeColor=none;fillColor=none;align=left;verticalAlign=top;spacingLeft=4;spacingRight=4;overflow=hidden;rotatable=0;points=[[0,0.5],[1,0.5]];portConstraint=eastwest;whiteSpace=wrap;html=1;" parent="ogL9IN2SmqmJOzdBA25b-213" vertex="1">
          <mxGeometry y="112" width="450" height="26" as="geometry" />
        </mxCell>
        <mxCell id="ogL9IN2SmqmJOzdBA25b-217" value="+ executeQuery(string query): List&amp;lt;Object&amp;gt;" style="text;strokeColor=none;fillColor=none;align=left;verticalAlign=top;spacingLeft=4;spacingRight=4;overflow=hidden;rotatable=0;points=[[0,0.5],[1,0.5]];portConstraint=eastwest;whiteSpace=wrap;html=1;" parent="ogL9IN2SmqmJOzdBA25b-213" vertex="1">
          <mxGeometry y="138" width="450" height="26" as="geometry" />
        </mxCell>
        <mxCell id="ogL9IN2SmqmJOzdBA25b-222" value="" style="endArrow=open;endFill=1;endSize=12;html=1;rounded=0;exitX=0.344;exitY=1.077;exitDx=0;exitDy=0;entryX=0.542;entryY=0;entryDx=0;entryDy=0;exitPerimeter=0;entryPerimeter=0;" parent="1" source="ogL9IN2SmqmJOzdBA25b-217" target="ogL9IN2SmqmJOzdBA25b-115" edge="1">
          <mxGeometry width="160" relative="1" as="geometry">
            <mxPoint x="641" y="-1130" as="sourcePoint" />
            <mxPoint x="300" y="-1042" as="targetPoint" />
          </mxGeometry>
        </mxCell>
        <mxCell id="ogL9IN2SmqmJOzdBA25b-223" value="get data from DB" style="edgeLabel;html=1;align=center;verticalAlign=middle;resizable=0;points=[];" parent="ogL9IN2SmqmJOzdBA25b-222" vertex="1" connectable="0">
          <mxGeometry x="-0.0279" y="-1" relative="1" as="geometry">
            <mxPoint as="offset" />
          </mxGeometry>
        </mxCell>
        <mxCell id="ogL9IN2SmqmJOzdBA25b-227" value="*" style="edgeLabel;html=1;align=center;verticalAlign=middle;resizable=0;points=[];" parent="ogL9IN2SmqmJOzdBA25b-222" vertex="1" connectable="0">
          <mxGeometry x="0.8563" y="-1" relative="1" as="geometry">
            <mxPoint x="-10" y="-20" as="offset" />
          </mxGeometry>
        </mxCell>
        <mxCell id="ogL9IN2SmqmJOzdBA25b-228" value="1" style="edgeLabel;html=1;align=center;verticalAlign=middle;resizable=0;points=[];" parent="ogL9IN2SmqmJOzdBA25b-222" vertex="1" connectable="0">
          <mxGeometry x="-0.8667" y="2" relative="1" as="geometry">
            <mxPoint x="11" y="6" as="offset" />
          </mxGeometry>
        </mxCell>
        <mxCell id="ogL9IN2SmqmJOzdBA25b-229" value="" style="endArrow=open;endFill=1;endSize=12;html=1;rounded=0;exitX=1;exitY=0.5;exitDx=0;exitDy=0;entryX=-0.002;entryY=0.088;entryDx=0;entryDy=0;entryPerimeter=0;" parent="1" source="ogL9IN2SmqmJOzdBA25b-122" target="ogL9IN2SmqmJOzdBA25b-182" edge="1">
          <mxGeometry width="160" relative="1" as="geometry">
            <mxPoint x="520" y="-640" as="sourcePoint" />
            <mxPoint x="129" y="-522" as="targetPoint" />
          </mxGeometry>
        </mxCell>
        <mxCell id="ogL9IN2SmqmJOzdBA25b-230" value="get data" style="edgeLabel;html=1;align=center;verticalAlign=middle;resizable=0;points=[];" parent="ogL9IN2SmqmJOzdBA25b-229" vertex="1" connectable="0">
          <mxGeometry x="-0.0279" y="-1" relative="1" as="geometry">
            <mxPoint as="offset" />
          </mxGeometry>
        </mxCell>
        <mxCell id="ogL9IN2SmqmJOzdBA25b-231" value="*" style="edgeLabel;html=1;align=center;verticalAlign=middle;resizable=0;points=[];" parent="ogL9IN2SmqmJOzdBA25b-229" vertex="1" connectable="0">
          <mxGeometry x="-0.8384" relative="1" as="geometry">
            <mxPoint x="13" y="4" as="offset" />
          </mxGeometry>
        </mxCell>
        <mxCell id="ogL9IN2SmqmJOzdBA25b-232" value="1" style="edgeLabel;html=1;align=center;verticalAlign=middle;resizable=0;points=[];" parent="ogL9IN2SmqmJOzdBA25b-229" vertex="1" connectable="0">
          <mxGeometry x="0.6051" y="2" relative="1" as="geometry">
            <mxPoint x="38" y="8" as="offset" />
          </mxGeometry>
        </mxCell>
        <mxCell id="EBcMu-_AQKdTez35xqux-4" value="" style="shape=collate;html=1;" parent="1" vertex="1">
          <mxGeometry x="520" y="30" width="40" height="40" as="geometry" />
        </mxCell>
        <mxCell id="EBcMu-_AQKdTez35xqux-6" value="" style="endArrow=classic;html=1;rounded=0;entryX=0;entryY=0.5;entryDx=0;entryDy=0;" parent="1" source="EBcMu-_AQKdTez35xqux-1" target="EBcMu-_AQKdTez35xqux-4" edge="1">
          <mxGeometry width="50" height="50" relative="1" as="geometry">
            <mxPoint x="120" y="80" as="sourcePoint" />
            <mxPoint x="190" y="50" as="targetPoint" />
          </mxGeometry>
        </mxCell>
        <mxCell id="EBcMu-_AQKdTez35xqux-10" value="Start" style="text;html=1;align=center;verticalAlign=middle;resizable=0;points=[];autosize=1;strokeColor=none;fillColor=none;" parent="1" vertex="1">
          <mxGeometry x="435" y="20" width="50" height="30" as="geometry" />
        </mxCell>
        <mxCell id="EBcMu-_AQKdTez35xqux-1" value="" style="shape=waypoint;sketch=0;fillStyle=solid;size=6;pointerEvents=1;points=[];fillColor=none;resizable=0;rotatable=0;perimeter=centerPerimeter;snapToPoint=1;" parent="1" vertex="1">
          <mxGeometry x="450" y="40" width="20" height="20" as="geometry" />
        </mxCell>
        <mxCell id="EBcMu-_AQKdTez35xqux-12" value="60 min" style="text;html=1;align=center;verticalAlign=middle;resizable=0;points=[];autosize=1;strokeColor=none;fillColor=none;" parent="1" vertex="1">
          <mxGeometry x="510" y="65" width="60" height="30" as="geometry" />
        </mxCell>
        <mxCell id="EBcMu-_AQKdTez35xqux-13" value="" style="rounded=1;whiteSpace=wrap;html=1;arcSize=11;strokeColor=default;dashed=1;" parent="1" vertex="1">
          <mxGeometry x="590" y="-130" width="1570" height="430" as="geometry" />
        </mxCell>
        <mxCell id="EBcMu-_AQKdTez35xqux-14" value="" style="rhombus;whiteSpace=wrap;html=1;" parent="1" vertex="1">
          <mxGeometry x="625" y="35" width="50" height="30" as="geometry" />
        </mxCell>
        <mxCell id="EBcMu-_AQKdTez35xqux-15" value="" style="endArrow=classic;html=1;rounded=0;exitX=1;exitY=0.5;exitDx=0;exitDy=0;entryX=0;entryY=0.5;entryDx=0;entryDy=0;" parent="1" source="EBcMu-_AQKdTez35xqux-4" target="EBcMu-_AQKdTez35xqux-14" edge="1">
          <mxGeometry width="50" height="50" relative="1" as="geometry">
            <mxPoint x="280" y="114.66" as="sourcePoint" />
            <mxPoint x="370" y="114.66" as="targetPoint" />
          </mxGeometry>
        </mxCell>
        <mxCell id="EBcMu-_AQKdTez35xqux-16" value="Get all data from DB" style="rounded=1;whiteSpace=wrap;html=1;arcSize=50;" parent="1" vertex="1">
          <mxGeometry x="650" y="130" width="130" height="50" as="geometry" />
        </mxCell>
        <mxCell id="EBcMu-_AQKdTez35xqux-17" value="" style="endArrow=classic;html=1;rounded=0;exitX=0.5;exitY=1;exitDx=0;exitDy=0;entryX=0.5;entryY=0;entryDx=0;entryDy=0;" parent="1" source="EBcMu-_AQKdTez35xqux-14" target="EBcMu-_AQKdTez35xqux-16" edge="1">
          <mxGeometry width="50" height="50" relative="1" as="geometry">
            <mxPoint x="260" y="90" as="sourcePoint" />
            <mxPoint x="340" y="90" as="targetPoint" />
          </mxGeometry>
        </mxCell>
        <mxCell id="EBcMu-_AQKdTez35xqux-18" value="if no cached data" style="edgeLabel;html=1;align=center;verticalAlign=middle;resizable=0;points=[];" parent="EBcMu-_AQKdTez35xqux-17" vertex="1" connectable="0">
          <mxGeometry x="-0.2117" y="1" relative="1" as="geometry">
            <mxPoint as="offset" />
          </mxGeometry>
        </mxCell>
        <mxCell id="EBcMu-_AQKdTez35xqux-19" value="Pass data to&amp;nbsp;&lt;div&gt;in-memory data structures / cash&lt;/div&gt;" style="rounded=1;whiteSpace=wrap;html=1;arcSize=50;" parent="1" vertex="1">
          <mxGeometry x="830" y="130" width="130" height="50" as="geometry" />
        </mxCell>
        <mxCell id="EBcMu-_AQKdTez35xqux-20" value="" style="endArrow=classic;html=1;rounded=0;exitX=1;exitY=0.5;exitDx=0;exitDy=0;entryX=0;entryY=0.5;entryDx=0;entryDy=0;" parent="1" source="EBcMu-_AQKdTez35xqux-16" target="EBcMu-_AQKdTez35xqux-19" edge="1">
          <mxGeometry width="50" height="50" relative="1" as="geometry">
            <mxPoint x="550" y="180" as="sourcePoint" />
            <mxPoint x="630" y="180" as="targetPoint" />
          </mxGeometry>
        </mxCell>
        <mxCell id="EBcMu-_AQKdTez35xqux-21" value="Filter data for specific&lt;div&gt;dashboard&lt;/div&gt;" style="rounded=1;whiteSpace=wrap;html=1;arcSize=50;" parent="1" vertex="1">
          <mxGeometry x="880" y="10" width="130" height="50" as="geometry" />
        </mxCell>
        <mxCell id="EBcMu-_AQKdTez35xqux-23" value="" style="endArrow=classic;html=1;rounded=0;exitX=0.408;exitY=0.026;exitDx=0;exitDy=0;exitPerimeter=0;entryX=0.25;entryY=1;entryDx=0;entryDy=0;" parent="1" source="EBcMu-_AQKdTez35xqux-19" target="EBcMu-_AQKdTez35xqux-21" edge="1">
          <mxGeometry width="50" height="50" relative="1" as="geometry">
            <mxPoint x="550" y="120" as="sourcePoint" />
            <mxPoint x="600" y="70" as="targetPoint" />
          </mxGeometry>
        </mxCell>
        <mxCell id="EBcMu-_AQKdTez35xqux-25" value="" style="endArrow=classic;html=1;rounded=0;exitX=0.641;exitY=0.06;exitDx=0;exitDy=0;exitPerimeter=0;entryX=0;entryY=0.5;entryDx=0;entryDy=0;" parent="1" source="EBcMu-_AQKdTez35xqux-14" target="EBcMu-_AQKdTez35xqux-21" edge="1">
          <mxGeometry width="50" height="50" relative="1" as="geometry">
            <mxPoint x="550" y="120" as="sourcePoint" />
            <mxPoint x="600" y="70" as="targetPoint" />
          </mxGeometry>
        </mxCell>
        <mxCell id="EBcMu-_AQKdTez35xqux-26" value="if data is present in cash" style="edgeLabel;html=1;align=center;verticalAlign=middle;resizable=0;points=[];" parent="EBcMu-_AQKdTez35xqux-25" vertex="1" connectable="0">
          <mxGeometry x="-0.2006" y="3" relative="1" as="geometry">
            <mxPoint y="1" as="offset" />
          </mxGeometry>
        </mxCell>
        <mxCell id="EBcMu-_AQKdTez35xqux-30" value="Upload to dashboard" style="rounded=1;whiteSpace=wrap;html=1;arcSize=50;" parent="1" vertex="1">
          <mxGeometry x="1260" y="5" width="130" height="50" as="geometry" />
        </mxCell>
        <mxCell id="EBcMu-_AQKdTez35xqux-31" value="" style="endArrow=classic;html=1;rounded=0;exitX=1;exitY=0.5;exitDx=0;exitDy=0;entryX=0;entryY=0.5;entryDx=0;entryDy=0;" parent="1" source="EBcMu-_AQKdTez35xqux-21" target="EBcMu-_AQKdTez35xqux-60" edge="1">
          <mxGeometry width="50" height="50" relative="1" as="geometry">
            <mxPoint x="1010" y="130" as="sourcePoint" />
            <mxPoint x="1040" y="59" as="targetPoint" />
          </mxGeometry>
        </mxCell>
        <mxCell id="EBcMu-_AQKdTez35xqux-32" value="" style="rhombus;whiteSpace=wrap;html=1;" parent="1" vertex="1">
          <mxGeometry x="1460" y="15" width="50" height="30" as="geometry" />
        </mxCell>
        <mxCell id="EBcMu-_AQKdTez35xqux-33" value="" style="endArrow=classic;html=1;rounded=0;exitX=1;exitY=0.5;exitDx=0;exitDy=0;entryX=0;entryY=0.5;entryDx=0;entryDy=0;" parent="1" source="EBcMu-_AQKdTez35xqux-30" target="EBcMu-_AQKdTez35xqux-32" edge="1">
          <mxGeometry width="50" height="50" relative="1" as="geometry">
            <mxPoint x="1020" y="45" as="sourcePoint" />
            <mxPoint x="1065" y="45" as="targetPoint" />
          </mxGeometry>
        </mxCell>
        <mxCell id="EBcMu-_AQKdTez35xqux-34" value="Processing&lt;div&gt;dashboard&lt;/div&gt;&lt;div&gt;settings&lt;/div&gt;" style="rounded=1;whiteSpace=wrap;html=1;arcSize=50;" parent="1" vertex="1">
          <mxGeometry x="1710" y="-80" width="130" height="50" as="geometry" />
        </mxCell>
        <mxCell id="EBcMu-_AQKdTez35xqux-35" value="Display info&lt;div&gt;on presentation&lt;/div&gt;" style="rounded=1;whiteSpace=wrap;html=1;arcSize=50;" parent="1" vertex="1">
          <mxGeometry x="1880" y="-35" width="130" height="50" as="geometry" />
        </mxCell>
        <mxCell id="EBcMu-_AQKdTez35xqux-37" value="" style="endArrow=classic;html=1;rounded=0;exitX=1;exitY=0.5;exitDx=0;exitDy=0;entryX=0;entryY=0.5;entryDx=0;entryDy=0;" parent="1" source="EBcMu-_AQKdTez35xqux-34" target="EBcMu-_AQKdTez35xqux-35" edge="1">
          <mxGeometry width="50" height="50" relative="1" as="geometry">
            <mxPoint x="1278" y="38" as="sourcePoint" />
            <mxPoint x="1360" y="25" as="targetPoint" />
          </mxGeometry>
        </mxCell>
        <mxCell id="EBcMu-_AQKdTez35xqux-40" value="" style="line;strokeWidth=4;direction=south;html=1;perimeter=backbonePerimeter;points=[];outlineConnect=0;" parent="1" vertex="1">
          <mxGeometry x="1660" y="-30" width="10" height="110" as="geometry" />
        </mxCell>
        <mxCell id="EBcMu-_AQKdTez35xqux-41" value="" style="endArrow=classic;html=1;rounded=0;entryX=0;entryY=0.5;entryDx=0;entryDy=0;" parent="1" source="EBcMu-_AQKdTez35xqux-40" target="EBcMu-_AQKdTez35xqux-34" edge="1">
          <mxGeometry width="50" height="50" relative="1" as="geometry">
            <mxPoint x="1510" y="-55" as="sourcePoint" />
            <mxPoint x="1534" y="-55" as="targetPoint" />
          </mxGeometry>
        </mxCell>
        <mxCell id="EBcMu-_AQKdTez35xqux-43" value="" style="endArrow=classic;html=1;rounded=0;exitX=1;exitY=0;exitDx=0;exitDy=0;" parent="1" source="EBcMu-_AQKdTez35xqux-32" target="EBcMu-_AQKdTez35xqux-40" edge="1">
          <mxGeometry width="50" height="50" relative="1" as="geometry">
            <mxPoint x="1336" y="-20" as="sourcePoint" />
            <mxPoint x="1380" y="-55" as="targetPoint" />
          </mxGeometry>
        </mxCell>
        <mxCell id="EBcMu-_AQKdTez35xqux-51" value="if upload successful" style="edgeLabel;html=1;align=center;verticalAlign=middle;resizable=0;points=[];" parent="EBcMu-_AQKdTez35xqux-43" vertex="1" connectable="0">
          <mxGeometry x="-0.3177" relative="1" as="geometry">
            <mxPoint as="offset" />
          </mxGeometry>
        </mxCell>
        <mxCell id="EBcMu-_AQKdTez35xqux-44" value="Forming report&lt;div&gt;based on&lt;/div&gt;&lt;div&gt;dashboard data&lt;/div&gt;" style="rounded=1;whiteSpace=wrap;html=1;arcSize=50;" parent="1" vertex="1">
          <mxGeometry x="1810" y="80" width="130" height="50" as="geometry" />
        </mxCell>
        <mxCell id="EBcMu-_AQKdTez35xqux-45" value="" style="endArrow=classic;html=1;rounded=0;entryX=0;entryY=0.5;entryDx=0;entryDy=0;" parent="1" source="EBcMu-_AQKdTez35xqux-40" target="EBcMu-_AQKdTez35xqux-44" edge="1">
          <mxGeometry width="50" height="50" relative="1" as="geometry">
            <mxPoint x="1336" y="-20" as="sourcePoint" />
            <mxPoint x="1380" y="-35" as="targetPoint" />
          </mxGeometry>
        </mxCell>
        <mxCell id="EBcMu-_AQKdTez35xqux-48" value="" style="line;strokeWidth=4;direction=south;html=1;perimeter=backbonePerimeter;points=[];outlineConnect=0;" parent="1" vertex="1">
          <mxGeometry x="2062" y="-20" width="10" height="110" as="geometry" />
        </mxCell>
        <mxCell id="EBcMu-_AQKdTez35xqux-49" value="" style="endArrow=classic;html=1;rounded=0;exitX=1;exitY=0.5;exitDx=0;exitDy=0;" parent="1" source="EBcMu-_AQKdTez35xqux-44" target="EBcMu-_AQKdTez35xqux-48" edge="1">
          <mxGeometry width="50" height="50" relative="1" as="geometry">
            <mxPoint x="1336" y="-20" as="sourcePoint" />
            <mxPoint x="1404" y="-35" as="targetPoint" />
          </mxGeometry>
        </mxCell>
        <mxCell id="EBcMu-_AQKdTez35xqux-50" value="" style="endArrow=classic;html=1;rounded=0;exitX=1;exitY=0.5;exitDx=0;exitDy=0;" parent="1" source="EBcMu-_AQKdTez35xqux-35" target="EBcMu-_AQKdTez35xqux-48" edge="1">
          <mxGeometry width="50" height="50" relative="1" as="geometry">
            <mxPoint x="1570" y="105" as="sourcePoint" />
            <mxPoint x="1723" y="90" as="targetPoint" />
          </mxGeometry>
        </mxCell>
        <mxCell id="EBcMu-_AQKdTez35xqux-52" value="" style="endArrow=classic;html=1;rounded=0;exitX=1;exitY=1;exitDx=0;exitDy=0;entryX=0.5;entryY=0;entryDx=0;entryDy=0;" parent="1" source="EBcMu-_AQKdTez35xqux-32" target="EBcMu-_AQKdTez35xqux-56" edge="1">
          <mxGeometry width="50" height="50" relative="1" as="geometry">
            <mxPoint x="1278" y="38" as="sourcePoint" />
            <mxPoint x="1513" y="38" as="targetPoint" />
          </mxGeometry>
        </mxCell>
        <mxCell id="EBcMu-_AQKdTez35xqux-53" value="if there was network issues" style="edgeLabel;html=1;align=center;verticalAlign=middle;resizable=0;points=[];" parent="EBcMu-_AQKdTez35xqux-52" vertex="1" connectable="0">
          <mxGeometry x="-0.3177" relative="1" as="geometry">
            <mxPoint as="offset" />
          </mxGeometry>
        </mxCell>
        <mxCell id="EBcMu-_AQKdTez35xqux-54" value="Throw an exception&amp;nbsp;&lt;div&gt;that there may be&amp;nbsp;&lt;/div&gt;&lt;div&gt;network issues&lt;/div&gt;" style="rounded=1;whiteSpace=wrap;html=1;arcSize=50;" parent="1" vertex="1">
          <mxGeometry x="1600" y="220" width="130" height="50" as="geometry" />
        </mxCell>
        <mxCell id="EBcMu-_AQKdTez35xqux-55" value="upload_try_times++" style="rounded=0;whiteSpace=wrap;html=1;" parent="1" vertex="1">
          <mxGeometry x="1200" y="170" width="140" height="60" as="geometry" />
        </mxCell>
        <mxCell id="EBcMu-_AQKdTez35xqux-56" value="" style="rhombus;whiteSpace=wrap;html=1;" parent="1" vertex="1">
          <mxGeometry x="1490" y="130" width="50" height="30" as="geometry" />
        </mxCell>
        <mxCell id="EBcMu-_AQKdTez35xqux-57" value="" style="endArrow=classic;html=1;rounded=0;exitX=0;exitY=1;exitDx=0;exitDy=0;entryX=0.994;entryY=0.422;entryDx=0;entryDy=0;entryPerimeter=0;" parent="1" source="EBcMu-_AQKdTez35xqux-56" target="EBcMu-_AQKdTez35xqux-55" edge="1">
          <mxGeometry width="50" height="50" relative="1" as="geometry">
            <mxPoint x="1420" y="150" as="sourcePoint" />
            <mxPoint x="1487" y="247" as="targetPoint" />
          </mxGeometry>
        </mxCell>
        <mxCell id="EBcMu-_AQKdTez35xqux-58" value="if upload_try_times &amp;lt; 2" style="edgeLabel;html=1;align=center;verticalAlign=middle;resizable=0;points=[];" parent="EBcMu-_AQKdTez35xqux-57" vertex="1" connectable="0">
          <mxGeometry x="-0.3177" relative="1" as="geometry">
            <mxPoint as="offset" />
          </mxGeometry>
        </mxCell>
        <mxCell id="EBcMu-_AQKdTez35xqux-59" value="" style="endArrow=classic;html=1;rounded=0;exitX=0.25;exitY=0;exitDx=0;exitDy=0;entryX=0.051;entryY=0.84;entryDx=0;entryDy=0;entryPerimeter=0;" parent="1" source="EBcMu-_AQKdTez35xqux-55" target="EBcMu-_AQKdTez35xqux-30" edge="1">
          <mxGeometry width="50" height="50" relative="1" as="geometry">
            <mxPoint x="1350" y="190" as="sourcePoint" />
            <mxPoint x="1400" y="140" as="targetPoint" />
          </mxGeometry>
        </mxCell>
        <mxCell id="EBcMu-_AQKdTez35xqux-60" value="int upload_try_times = 0" style="rounded=0;whiteSpace=wrap;html=1;" parent="1" vertex="1">
          <mxGeometry x="1040" y="5" width="160" height="60" as="geometry" />
        </mxCell>
        <mxCell id="EBcMu-_AQKdTez35xqux-61" value="" style="endArrow=classic;html=1;rounded=0;entryX=0;entryY=0.5;entryDx=0;entryDy=0;exitX=1;exitY=0.5;exitDx=0;exitDy=0;" parent="1" source="EBcMu-_AQKdTez35xqux-60" target="EBcMu-_AQKdTez35xqux-30" edge="1">
          <mxGeometry width="50" height="50" relative="1" as="geometry">
            <mxPoint x="1160" y="190" as="sourcePoint" />
            <mxPoint x="1210" y="140" as="targetPoint" />
          </mxGeometry>
        </mxCell>
        <mxCell id="EBcMu-_AQKdTez35xqux-63" value="" style="endArrow=classic;html=1;rounded=0;exitX=1;exitY=1;exitDx=0;exitDy=0;entryX=0;entryY=0.5;entryDx=0;entryDy=0;" parent="1" source="EBcMu-_AQKdTez35xqux-56" target="EBcMu-_AQKdTez35xqux-54" edge="1">
          <mxGeometry width="50" height="50" relative="1" as="geometry">
            <mxPoint x="1540" y="270" as="sourcePoint" />
            <mxPoint x="1590" y="220" as="targetPoint" />
          </mxGeometry>
        </mxCell>
        <mxCell id="EBcMu-_AQKdTez35xqux-64" value="if upload_try_times &amp;gt;= 2" style="edgeLabel;html=1;align=center;verticalAlign=middle;resizable=0;points=[];" parent="EBcMu-_AQKdTez35xqux-63" vertex="1" connectable="0">
          <mxGeometry x="-0.1141" relative="1" as="geometry">
            <mxPoint as="offset" />
          </mxGeometry>
        </mxCell>
        <mxCell id="EBcMu-_AQKdTez35xqux-65" value="" style="shape=waypoint;sketch=0;fillStyle=solid;size=6;pointerEvents=1;points=[];fillColor=none;resizable=0;rotatable=0;perimeter=centerPerimeter;snapToPoint=1;" parent="1" vertex="1">
          <mxGeometry x="1780" y="230" width="20" height="20" as="geometry" />
        </mxCell>
        <mxCell id="EBcMu-_AQKdTez35xqux-66" value="" style="endArrow=classic;html=1;rounded=0;exitX=1;exitY=0.5;exitDx=0;exitDy=0;entryX=0.875;entryY=0.35;entryDx=0;entryDy=0;entryPerimeter=0;" parent="1" source="EBcMu-_AQKdTez35xqux-54" target="EBcMu-_AQKdTez35xqux-65" edge="1">
          <mxGeometry width="50" height="50" relative="1" as="geometry">
            <mxPoint x="1450" y="270" as="sourcePoint" />
            <mxPoint x="1500" y="220" as="targetPoint" />
          </mxGeometry>
        </mxCell>
        <mxCell id="EBcMu-_AQKdTez35xqux-69" value="End" style="text;html=1;align=center;verticalAlign=middle;resizable=0;points=[];autosize=1;strokeColor=none;fillColor=none;" parent="1" vertex="1">
          <mxGeometry x="1770" y="210" width="40" height="30" as="geometry" />
        </mxCell>
        <mxCell id="EBcMu-_AQKdTez35xqux-70" value="" style="endArrow=classic;html=1;rounded=0;entryX=0.5;entryY=0;entryDx=0;entryDy=0;" parent="1" source="EBcMu-_AQKdTez35xqux-48" target="EBcMu-_AQKdTez35xqux-4" edge="1">
          <mxGeometry width="50" height="50" relative="1" as="geometry">
            <mxPoint x="2180" y="-30" as="sourcePoint" />
            <mxPoint x="490" y="-130.00000000000045" as="targetPoint" />
            <Array as="points">
              <mxPoint x="2130" y="50" />
              <mxPoint x="2130" y="-160" />
              <mxPoint x="1470" y="-160" />
              <mxPoint x="540" y="-160" />
            </Array>
          </mxGeometry>
        </mxCell>
        <mxCell id="EBcMu-_AQKdTez35xqux-71" value="User&#39;s&lt;div&gt;Browser&lt;/div&gt;" style="rounded=0;whiteSpace=wrap;html=1;" parent="1" vertex="1">
          <mxGeometry x="180" y="470" width="120" height="60" as="geometry" />
        </mxCell>
        <mxCell id="EBcMu-_AQKdTez35xqux-72" value="Yahoo! Finance&lt;div&gt;Frontend&lt;/div&gt;" style="rounded=0;whiteSpace=wrap;html=1;" parent="1" vertex="1">
          <mxGeometry x="485" y="470" width="120" height="60" as="geometry" />
        </mxCell>
        <mxCell id="EBcMu-_AQKdTez35xqux-73" value="Yahoo! Finance&lt;div&gt;Backend&lt;/div&gt;" style="rounded=0;whiteSpace=wrap;html=1;" parent="1" vertex="1">
          <mxGeometry x="780" y="470" width="120" height="60" as="geometry" />
        </mxCell>
        <mxCell id="EBcMu-_AQKdTez35xqux-74" value="Yahoo! Finance&lt;div&gt;Database&lt;/div&gt;" style="rounded=0;whiteSpace=wrap;html=1;" parent="1" vertex="1">
          <mxGeometry x="1080" y="470" width="120" height="60" as="geometry" />
        </mxCell>
        <mxCell id="EBcMu-_AQKdTez35xqux-75" value="" style="shape=ext;double=1;rounded=0;whiteSpace=wrap;html=1;" parent="1" vertex="1">
          <mxGeometry x="230" y="570" width="20" height="720" as="geometry" />
        </mxCell>
        <mxCell id="EBcMu-_AQKdTez35xqux-77" value="" style="shape=ext;double=1;rounded=0;whiteSpace=wrap;html=1;" parent="1" vertex="1">
          <mxGeometry x="827" y="570" width="20" height="720" as="geometry" />
        </mxCell>
        <mxCell id="EBcMu-_AQKdTez35xqux-78" value="" style="shape=ext;double=1;rounded=0;whiteSpace=wrap;html=1;" parent="1" vertex="1">
          <mxGeometry x="1130" y="940" width="20" height="160" as="geometry" />
        </mxCell>
        <mxCell id="EBcMu-_AQKdTez35xqux-79" value="" style="endArrow=classic;html=1;rounded=0;entryX=0;entryY=0.5;entryDx=0;entryDy=0;exitX=1.033;exitY=0.069;exitDx=0;exitDy=0;exitPerimeter=0;" parent="1" source="EBcMu-_AQKdTez35xqux-75" edge="1">
          <mxGeometry width="50" height="50" relative="1" as="geometry">
            <mxPoint x="250" y="620" as="sourcePoint" />
            <mxPoint x="535" y="615" as="targetPoint" />
          </mxGeometry>
        </mxCell>
        <mxCell id="EBcMu-_AQKdTez35xqux-80" value="user refreshes the page" style="edgeLabel;html=1;align=center;verticalAlign=middle;resizable=0;points=[];" parent="EBcMu-_AQKdTez35xqux-79" vertex="1" connectable="0">
          <mxGeometry x="-0.1419" y="-1" relative="1" as="geometry">
            <mxPoint as="offset" />
          </mxGeometry>
        </mxCell>
        <mxCell id="EBcMu-_AQKdTez35xqux-81" value="" style="endArrow=classic;html=1;rounded=0;exitX=1;exitY=0.5;exitDx=0;exitDy=0;entryX=0.043;entryY=0.067;entryDx=0;entryDy=0;entryPerimeter=0;" parent="1" target="EBcMu-_AQKdTez35xqux-77" edge="1">
          <mxGeometry width="50" height="50" relative="1" as="geometry">
            <mxPoint x="555" y="615" as="sourcePoint" />
            <mxPoint x="820" y="615" as="targetPoint" />
            <Array as="points" />
          </mxGeometry>
        </mxCell>
        <mxCell id="EBcMu-_AQKdTez35xqux-83" value="request to backend" style="edgeLabel;html=1;align=center;verticalAlign=middle;resizable=0;points=[];" parent="EBcMu-_AQKdTez35xqux-81" vertex="1" connectable="0">
          <mxGeometry x="0.0789" y="-3" relative="1" as="geometry">
            <mxPoint as="offset" />
          </mxGeometry>
        </mxCell>
        <mxCell id="EBcMu-_AQKdTez35xqux-88" value="if user login&lt;div&gt;is timed out&lt;/div&gt;" style="rounded=0;whiteSpace=wrap;html=1;" parent="1" vertex="1">
          <mxGeometry x="130" y="680" width="100" height="110" as="geometry" />
        </mxCell>
        <mxCell id="EBcMu-_AQKdTez35xqux-89" value="" style="endArrow=none;html=1;rounded=0;exitX=0.95;exitY=0.166;exitDx=0;exitDy=0;exitPerimeter=0;entryX=-0.014;entryY=0.167;entryDx=0;entryDy=0;entryPerimeter=0;" parent="1" source="EBcMu-_AQKdTez35xqux-75" target="EBcMu-_AQKdTez35xqux-77" edge="1">
          <mxGeometry width="50" height="50" relative="1" as="geometry">
            <mxPoint x="560" y="730" as="sourcePoint" />
            <mxPoint x="810" y="680" as="targetPoint" />
          </mxGeometry>
        </mxCell>
        <mxCell id="EBcMu-_AQKdTez35xqux-90" value="" style="endArrow=none;html=1;rounded=0;exitX=1;exitY=0.394;exitDx=0;exitDy=0;exitPerimeter=0;entryX=0.017;entryY=0.394;entryDx=0;entryDy=0;entryPerimeter=0;" parent="1" edge="1">
          <mxGeometry width="50" height="50" relative="1" as="geometry">
            <mxPoint x="250" y="790" as="sourcePoint" />
            <mxPoint x="827.3399999999999" y="790" as="targetPoint" />
          </mxGeometry>
        </mxCell>
        <mxCell id="EBcMu-_AQKdTez35xqux-92" value="" style="endArrow=none;html=1;rounded=0;exitX=1;exitY=0.167;exitDx=0;exitDy=0;exitPerimeter=0;" parent="1" source="EBcMu-_AQKdTez35xqux-77" edge="1">
          <mxGeometry width="50" height="50" relative="1" as="geometry">
            <mxPoint x="860" y="680" as="sourcePoint" />
            <mxPoint x="1190" y="790" as="targetPoint" />
            <Array as="points">
              <mxPoint x="1190" y="690" />
            </Array>
          </mxGeometry>
        </mxCell>
        <mxCell id="EBcMu-_AQKdTez35xqux-93" value="" style="endArrow=none;html=1;rounded=0;exitX=0.998;exitY=0.394;exitDx=0;exitDy=0;exitPerimeter=0;" parent="1" edge="1">
          <mxGeometry width="50" height="50" relative="1" as="geometry">
            <mxPoint x="846.9599999999998" y="790.04" as="sourcePoint" />
            <mxPoint x="1190" y="790" as="targetPoint" />
          </mxGeometry>
        </mxCell>
        <mxCell id="EBcMu-_AQKdTez35xqux-95" value="" style="endArrow=classic;html=1;rounded=0;exitX=0;exitY=0.25;exitDx=0;exitDy=0;dashed=1;entryX=1;entryY=0.25;entryDx=0;entryDy=0;" parent="1" source="EBcMu-_AQKdTez35xqux-77" target="EBcMu-_AQKdTez35xqux-105" edge="1">
          <mxGeometry width="50" height="50" relative="1" as="geometry">
            <mxPoint x="460" y="750" as="sourcePoint" />
            <mxPoint x="640" y="735" as="targetPoint" />
          </mxGeometry>
        </mxCell>
        <mxCell id="EBcMu-_AQKdTez35xqux-96" value="return message&lt;div&gt;that user should&amp;nbsp;&lt;/div&gt;&lt;div&gt;log in&lt;/div&gt;" style="edgeLabel;html=1;align=center;verticalAlign=middle;resizable=0;points=[];" parent="EBcMu-_AQKdTez35xqux-95" vertex="1" connectable="0">
          <mxGeometry x="-0.0793" y="3" relative="1" as="geometry">
            <mxPoint x="-16" as="offset" />
          </mxGeometry>
        </mxCell>
        <mxCell id="EBcMu-_AQKdTez35xqux-99" value="if latest data&amp;nbsp;&lt;div&gt;is stored&lt;/div&gt;&lt;div&gt;in cache&lt;/div&gt;" style="rounded=0;whiteSpace=wrap;html=1;" parent="1" vertex="1">
          <mxGeometry x="130" y="820" width="100" height="110" as="geometry" />
        </mxCell>
        <mxCell id="EBcMu-_AQKdTez35xqux-100" value="" style="endArrow=none;html=1;rounded=0;exitX=0.95;exitY=0.166;exitDx=0;exitDy=0;exitPerimeter=0;entryX=-0.014;entryY=0.167;entryDx=0;entryDy=0;entryPerimeter=0;" parent="1" edge="1">
          <mxGeometry width="50" height="50" relative="1" as="geometry">
            <mxPoint x="250" y="820" as="sourcePoint" />
            <mxPoint x="828" y="820" as="targetPoint" />
          </mxGeometry>
        </mxCell>
        <mxCell id="EBcMu-_AQKdTez35xqux-101" value="" style="endArrow=none;html=1;rounded=0;exitX=0.95;exitY=0.166;exitDx=0;exitDy=0;exitPerimeter=0;entryX=-0.014;entryY=0.167;entryDx=0;entryDy=0;entryPerimeter=0;" parent="1" edge="1">
          <mxGeometry width="50" height="50" relative="1" as="geometry">
            <mxPoint x="250" y="930" as="sourcePoint" />
            <mxPoint x="828" y="930" as="targetPoint" />
          </mxGeometry>
        </mxCell>
        <mxCell id="EBcMu-_AQKdTez35xqux-102" value="" style="endArrow=none;html=1;rounded=0;exitX=1;exitY=0.167;exitDx=0;exitDy=0;exitPerimeter=0;" parent="1" edge="1">
          <mxGeometry width="50" height="50" relative="1" as="geometry">
            <mxPoint x="847" y="820" as="sourcePoint" />
            <mxPoint x="1190" y="930" as="targetPoint" />
            <Array as="points">
              <mxPoint x="1190" y="820" />
            </Array>
          </mxGeometry>
        </mxCell>
        <mxCell id="EBcMu-_AQKdTez35xqux-103" value="" style="endArrow=none;html=1;rounded=0;exitX=0.998;exitY=0.394;exitDx=0;exitDy=0;exitPerimeter=0;" parent="1" edge="1">
          <mxGeometry width="50" height="50" relative="1" as="geometry">
            <mxPoint x="846.9999999999998" y="930.04" as="sourcePoint" />
            <mxPoint x="1190.04" y="930" as="targetPoint" />
          </mxGeometry>
        </mxCell>
        <mxCell id="EBcMu-_AQKdTez35xqux-105" value="" style="shape=ext;double=1;rounded=0;whiteSpace=wrap;html=1;" parent="1" vertex="1">
          <mxGeometry x="535" y="570" width="20" height="720" as="geometry" />
        </mxCell>
        <mxCell id="EBcMu-_AQKdTez35xqux-106" value="" style="endArrow=classic;html=1;rounded=0;exitX=-0.04;exitY=0.463;exitDx=0;exitDy=0;exitPerimeter=0;entryX=0.957;entryY=0.464;entryDx=0;entryDy=0;entryPerimeter=0;" parent="1" edge="1">
          <mxGeometry width="50" height="50" relative="1" as="geometry">
            <mxPoint x="827.0599999999998" y="874.4100000000005" as="sourcePoint" />
            <mxPoint x="555.0000000000001" y="875.1299999999999" as="targetPoint" />
          </mxGeometry>
        </mxCell>
        <mxCell id="EBcMu-_AQKdTez35xqux-107" value="return cached data" style="edgeLabel;html=1;align=center;verticalAlign=middle;resizable=0;points=[];" parent="EBcMu-_AQKdTez35xqux-106" vertex="1" connectable="0">
          <mxGeometry x="-0.0284" y="3" relative="1" as="geometry">
            <mxPoint as="offset" />
          </mxGeometry>
        </mxCell>
        <mxCell id="EBcMu-_AQKdTez35xqux-110" value="else" style="rounded=0;whiteSpace=wrap;html=1;" parent="1" vertex="1">
          <mxGeometry x="130" y="930" width="100" height="180" as="geometry" />
        </mxCell>
        <mxCell id="EBcMu-_AQKdTez35xqux-111" value="" style="endArrow=none;html=1;rounded=0;exitX=0.95;exitY=0.166;exitDx=0;exitDy=0;exitPerimeter=0;entryX=-0.014;entryY=0.167;entryDx=0;entryDy=0;entryPerimeter=0;" parent="1" edge="1">
          <mxGeometry width="50" height="50" relative="1" as="geometry">
            <mxPoint x="250" y="1110" as="sourcePoint" />
            <mxPoint x="828" y="1110" as="targetPoint" />
          </mxGeometry>
        </mxCell>
        <mxCell id="EBcMu-_AQKdTez35xqux-112" value="" style="endArrow=none;html=1;rounded=0;exitX=1;exitY=0.167;exitDx=0;exitDy=0;exitPerimeter=0;" parent="1" edge="1">
          <mxGeometry width="50" height="50" relative="1" as="geometry">
            <mxPoint x="847" y="930" as="sourcePoint" />
            <mxPoint x="1190" y="1090" as="targetPoint" />
            <Array as="points">
              <mxPoint x="1190" y="930" />
            </Array>
          </mxGeometry>
        </mxCell>
        <mxCell id="EBcMu-_AQKdTez35xqux-114" value="" style="endArrow=none;html=1;rounded=0;exitX=0.89;exitY=0.756;exitDx=0;exitDy=0;exitPerimeter=0;" parent="1" edge="1">
          <mxGeometry width="50" height="50" relative="1" as="geometry">
            <mxPoint x="847.0000000000002" y="1108.96" as="sourcePoint" />
            <mxPoint x="1190" y="1080" as="targetPoint" />
            <Array as="points">
              <mxPoint x="1022.2" y="1110" />
              <mxPoint x="1190" y="1110" />
            </Array>
          </mxGeometry>
        </mxCell>
        <mxCell id="EBcMu-_AQKdTez35xqux-115" value="" style="endArrow=classic;html=1;rounded=0;entryX=0;entryY=0.282;entryDx=0;entryDy=0;exitX=1.014;exitY=0.599;exitDx=0;exitDy=0;exitPerimeter=0;entryPerimeter=0;" parent="1" edge="1">
          <mxGeometry width="50" height="50" relative="1" as="geometry">
            <mxPoint x="847.28" y="950.0000000000001" as="sourcePoint" />
            <mxPoint x="1130" y="950.0400000000001" as="targetPoint" />
          </mxGeometry>
        </mxCell>
        <mxCell id="EBcMu-_AQKdTez35xqux-116" value="request to DB" style="edgeLabel;html=1;align=center;verticalAlign=middle;resizable=0;points=[];" parent="EBcMu-_AQKdTez35xqux-115" vertex="1" connectable="0">
          <mxGeometry x="0.144" y="-1" relative="1" as="geometry">
            <mxPoint as="offset" />
          </mxGeometry>
        </mxCell>
        <mxCell id="EBcMu-_AQKdTez35xqux-117" value="" style="endArrow=classic;html=1;rounded=0;exitX=0;exitY=0.25;exitDx=0;exitDy=0;" parent="1" source="EBcMu-_AQKdTez35xqux-78" edge="1">
          <mxGeometry width="50" height="50" relative="1" as="geometry">
            <mxPoint x="1123.72" y="979.9999999999998" as="sourcePoint" />
            <mxPoint x="847" y="980.97" as="targetPoint" />
          </mxGeometry>
        </mxCell>
        <mxCell id="EBcMu-_AQKdTez35xqux-118" value="updated data" style="edgeLabel;html=1;align=center;verticalAlign=middle;resizable=0;points=[];" parent="EBcMu-_AQKdTez35xqux-117" vertex="1" connectable="0">
          <mxGeometry x="-0.0708" y="-3" relative="1" as="geometry">
            <mxPoint as="offset" />
          </mxGeometry>
        </mxCell>
        <mxCell id="EBcMu-_AQKdTez35xqux-120" value="" style="endArrow=classic;html=1;rounded=0;exitX=1.15;exitY=0.667;exitDx=0;exitDy=0;exitPerimeter=0;entryX=1.103;entryY=0.708;entryDx=0;entryDy=0;entryPerimeter=0;" parent="1" target="EBcMu-_AQKdTez35xqux-77" edge="1">
          <mxGeometry width="50" height="50" relative="1" as="geometry">
            <mxPoint x="850" y="1005.2200000000003" as="sourcePoint" />
            <mxPoint x="847.0000000000002" y="1060" as="targetPoint" />
            <Array as="points">
              <mxPoint x="920" y="1005" />
              <mxPoint x="920" y="1080" />
            </Array>
          </mxGeometry>
        </mxCell>
        <mxCell id="EBcMu-_AQKdTez35xqux-121" value="process&amp;nbsp;&lt;div&gt;data&lt;/div&gt;" style="edgeLabel;html=1;align=center;verticalAlign=middle;resizable=0;points=[];" parent="EBcMu-_AQKdTez35xqux-120" vertex="1" connectable="0">
          <mxGeometry x="-0.1101" y="1" relative="1" as="geometry">
            <mxPoint as="offset" />
          </mxGeometry>
        </mxCell>
        <mxCell id="EBcMu-_AQKdTez35xqux-122" value="" style="endArrow=classic;html=1;rounded=0;exitX=-0.067;exitY=0.772;exitDx=0;exitDy=0;exitPerimeter=0;entryX=1.043;entryY=0.773;entryDx=0;entryDy=0;entryPerimeter=0;" parent="1" edge="1">
          <mxGeometry width="50" height="50" relative="1" as="geometry">
            <mxPoint x="824.8000000000001" y="1080.0000000000002" as="sourcePoint" />
            <mxPoint x="555.0000000000001" y="1080.7200000000005" as="targetPoint" />
          </mxGeometry>
        </mxCell>
        <mxCell id="EBcMu-_AQKdTez35xqux-123" value="return data" style="edgeLabel;html=1;align=center;verticalAlign=middle;resizable=0;points=[];" parent="EBcMu-_AQKdTez35xqux-122" vertex="1" connectable="0">
          <mxGeometry x="0.0519" y="-5" relative="1" as="geometry">
            <mxPoint as="offset" />
          </mxGeometry>
        </mxCell>
        <mxCell id="EBcMu-_AQKdTez35xqux-124" value="" style="endArrow=classic;html=1;rounded=0;exitX=-0.008;exitY=0.112;exitDx=0;exitDy=0;exitPerimeter=0;" parent="1" edge="1">
          <mxGeometry width="50" height="50" relative="1" as="geometry">
            <mxPoint x="535" y="1230.34" as="sourcePoint" />
            <mxPoint x="250" y="1230" as="targetPoint" />
          </mxGeometry>
        </mxCell>
        <mxCell id="EBcMu-_AQKdTez35xqux-125" value="return html page&amp;nbsp;&lt;div&gt;with received data&lt;/div&gt;" style="edgeLabel;html=1;align=center;verticalAlign=middle;resizable=0;points=[];" parent="EBcMu-_AQKdTez35xqux-124" vertex="1" connectable="0">
          <mxGeometry x="-0.0284" y="3" relative="1" as="geometry">
            <mxPoint as="offset" />
          </mxGeometry>
        </mxCell>
        <mxCell id="EBcMu-_AQKdTez35xqux-127" value="" style="endArrow=none;dashed=1;html=1;dashPattern=1 3;strokeWidth=2;rounded=0;exitX=0.5;exitY=0;exitDx=0;exitDy=0;" parent="1" source="EBcMu-_AQKdTez35xqux-78" edge="1">
          <mxGeometry width="50" height="50" relative="1" as="geometry">
            <mxPoint x="670" y="810" as="sourcePoint" />
            <mxPoint x="1140" y="570" as="targetPoint" />
          </mxGeometry>
        </mxCell>
        <mxCell id="EBcMu-_AQKdTez35xqux-128" value="" style="endArrow=none;dashed=1;html=1;dashPattern=1 3;strokeWidth=2;rounded=0;entryX=0.5;entryY=1;entryDx=0;entryDy=0;" parent="1" target="EBcMu-_AQKdTez35xqux-78" edge="1">
          <mxGeometry width="50" height="50" relative="1" as="geometry">
            <mxPoint x="1140" y="1290" as="sourcePoint" />
            <mxPoint x="720" y="760" as="targetPoint" />
          </mxGeometry>
        </mxCell>
        <mxCell id="N2CdR9yd78IjPTwV5XRp-1" value="" style="endArrow=classic;html=1;rounded=0;exitX=0;exitY=0.25;exitDx=0;exitDy=0;dashed=1;entryX=1;entryY=0.25;entryDx=0;entryDy=0;" parent="1" target="EBcMu-_AQKdTez35xqux-75" edge="1" source="EBcMu-_AQKdTez35xqux-105">
          <mxGeometry width="50" height="50" relative="1" as="geometry">
            <mxPoint x="535" y="734.71" as="sourcePoint" />
            <mxPoint x="263" y="734.71" as="targetPoint" />
          </mxGeometry>
        </mxCell>
        <mxCell id="N2CdR9yd78IjPTwV5XRp-2" value="display message&lt;div&gt;that user should&amp;nbsp;&lt;/div&gt;&lt;div&gt;log in&lt;/div&gt;" style="edgeLabel;html=1;align=center;verticalAlign=middle;resizable=0;points=[];" parent="N2CdR9yd78IjPTwV5XRp-1" vertex="1" connectable="0">
          <mxGeometry x="-0.0793" y="3" relative="1" as="geometry">
            <mxPoint x="-16" as="offset" />
          </mxGeometry>
        </mxCell>
        <mxCell id="OOLRp_xFaTdXaGMUtl8n-1" value="User" style="shape=umlActor;verticalLabelPosition=bottom;verticalAlign=top;html=1;outlineConnect=0;" parent="1" vertex="1">
          <mxGeometry x="130" y="-2210" width="30" height="60" as="geometry" />
        </mxCell>
        <mxCell id="OOLRp_xFaTdXaGMUtl8n-2" value="Choose index&lt;div&gt;or currency&lt;/div&gt;" style="ellipse;whiteSpace=wrap;html=1;" parent="1" vertex="1">
          <mxGeometry x="314" y="-2338" width="120" height="80" as="geometry" />
        </mxCell>
        <mxCell id="OOLRp_xFaTdXaGMUtl8n-3" value="" style="endArrow=classic;html=1;rounded=0;entryX=0;entryY=0.5;entryDx=0;entryDy=0;" parent="1" source="OOLRp_xFaTdXaGMUtl8n-1" target="OOLRp_xFaTdXaGMUtl8n-2" edge="1">
          <mxGeometry width="50" height="50" relative="1" as="geometry">
            <mxPoint x="370" y="-1970" as="sourcePoint" />
            <mxPoint x="420" y="-2020" as="targetPoint" />
          </mxGeometry>
        </mxCell>
        <mxCell id="Z72RSEmDFO8z5NvwC8p4-9" value="1..*" style="edgeLabel;html=1;align=center;verticalAlign=middle;resizable=0;points=[];" vertex="1" connectable="0" parent="OOLRp_xFaTdXaGMUtl8n-3">
          <mxGeometry x="-0.0231" y="1" relative="1" as="geometry">
            <mxPoint as="offset" />
          </mxGeometry>
        </mxCell>
        <mxCell id="OOLRp_xFaTdXaGMUtl8n-4" value="Build diagram" style="ellipse;whiteSpace=wrap;html=1;" parent="1" vertex="1">
          <mxGeometry x="310" y="-2220" width="120" height="80" as="geometry" />
        </mxCell>
        <mxCell id="OOLRp_xFaTdXaGMUtl8n-5" value="Build&lt;div&gt;multi-graph&lt;/div&gt;&lt;div&gt;diagram&lt;/div&gt;" style="ellipse;whiteSpace=wrap;html=1;" parent="1" vertex="1">
          <mxGeometry x="555" y="-2050" width="120" height="80" as="geometry" />
        </mxCell>
        <mxCell id="OOLRp_xFaTdXaGMUtl8n-6" value="Choose base of&amp;nbsp;&lt;div&gt;indexes to&lt;div&gt;compare&lt;/div&gt;&lt;/div&gt;" style="ellipse;whiteSpace=wrap;html=1;" parent="1" vertex="1">
          <mxGeometry x="510" y="-2370" width="150" height="80" as="geometry" />
        </mxCell>
        <mxCell id="OOLRp_xFaTdXaGMUtl8n-7" value="extend" style="endArrow=open;endSize=12;dashed=1;html=1;rounded=0;exitX=0;exitY=0.5;exitDx=0;exitDy=0;entryX=1;entryY=0.5;entryDx=0;entryDy=0;" parent="1" source="OOLRp_xFaTdXaGMUtl8n-6" target="OOLRp_xFaTdXaGMUtl8n-2" edge="1">
          <mxGeometry width="160" relative="1" as="geometry">
            <mxPoint x="310" y="-2160" as="sourcePoint" />
            <mxPoint x="470" y="-2160" as="targetPoint" />
          </mxGeometry>
        </mxCell>
        <mxCell id="OOLRp_xFaTdXaGMUtl8n-9" value="extend" style="endArrow=open;endSize=12;dashed=1;html=1;rounded=0;entryX=0.705;entryY=1.022;entryDx=0;entryDy=0;entryPerimeter=0;exitX=0.083;exitY=0.125;exitDx=0;exitDy=0;exitPerimeter=0;" parent="1" source="OOLRp_xFaTdXaGMUtl8n-5" target="OOLRp_xFaTdXaGMUtl8n-4" edge="1">
          <mxGeometry width="160" relative="1" as="geometry">
            <mxPoint x="590" y="-2110" as="sourcePoint" />
            <mxPoint x="394" y="-2140" as="targetPoint" />
          </mxGeometry>
        </mxCell>
        <mxCell id="OOLRp_xFaTdXaGMUtl8n-10" value="" style="endArrow=classic;html=1;rounded=0;entryX=0;entryY=0.5;entryDx=0;entryDy=0;" parent="1" source="OOLRp_xFaTdXaGMUtl8n-1" target="OOLRp_xFaTdXaGMUtl8n-4" edge="1">
          <mxGeometry width="50" height="50" relative="1" as="geometry">
            <mxPoint x="170" y="-2131" as="sourcePoint" />
            <mxPoint x="280" y="-2210" as="targetPoint" />
          </mxGeometry>
        </mxCell>
        <mxCell id="Z72RSEmDFO8z5NvwC8p4-10" value="1..*" style="edgeLabel;html=1;align=center;verticalAlign=middle;resizable=0;points=[];" vertex="1" connectable="0" parent="OOLRp_xFaTdXaGMUtl8n-10">
          <mxGeometry x="-0.0033" y="-1" relative="1" as="geometry">
            <mxPoint as="offset" />
          </mxGeometry>
        </mxCell>
        <mxCell id="OOLRp_xFaTdXaGMUtl8n-11" value="Analyze&lt;div&gt;diagram&lt;/div&gt;" style="ellipse;whiteSpace=wrap;html=1;" parent="1" vertex="1">
          <mxGeometry x="294" y="-2090" width="120" height="80" as="geometry" />
        </mxCell>
        <mxCell id="OOLRp_xFaTdXaGMUtl8n-12" value="" style="endArrow=classic;html=1;rounded=0;entryX=-0.028;entryY=0.431;entryDx=0;entryDy=0;exitX=1;exitY=1;exitDx=0;exitDy=0;exitPerimeter=0;entryPerimeter=0;" parent="1" source="OOLRp_xFaTdXaGMUtl8n-1" target="OOLRp_xFaTdXaGMUtl8n-11" edge="1">
          <mxGeometry width="50" height="50" relative="1" as="geometry">
            <mxPoint x="160" y="-2118" as="sourcePoint" />
            <mxPoint x="280" y="-2100" as="targetPoint" />
            <Array as="points" />
          </mxGeometry>
        </mxCell>
        <mxCell id="Z72RSEmDFO8z5NvwC8p4-11" value="1..*" style="edgeLabel;html=1;align=center;verticalAlign=middle;resizable=0;points=[];" vertex="1" connectable="0" parent="OOLRp_xFaTdXaGMUtl8n-12">
          <mxGeometry x="-0.0279" relative="1" as="geometry">
            <mxPoint y="-1" as="offset" />
          </mxGeometry>
        </mxCell>
        <mxCell id="Z72RSEmDFO8z5NvwC8p4-1" value="Use&lt;div&gt;system&lt;/div&gt;&lt;div&gt;analyzing&lt;/div&gt;&lt;div&gt;toolkit&lt;/div&gt;" style="ellipse;whiteSpace=wrap;html=1;" vertex="1" parent="1">
          <mxGeometry x="414" y="-1940" width="120" height="80" as="geometry" />
        </mxCell>
        <mxCell id="Z72RSEmDFO8z5NvwC8p4-2" value="extend" style="endArrow=open;endSize=12;dashed=1;html=1;rounded=0;exitX=0;exitY=0;exitDx=0;exitDy=0;entryX=1;entryY=1;entryDx=0;entryDy=0;" edge="1" parent="1" source="Z72RSEmDFO8z5NvwC8p4-1" target="OOLRp_xFaTdXaGMUtl8n-11">
          <mxGeometry width="160" relative="1" as="geometry">
            <mxPoint x="540" y="-1990.5" as="sourcePoint" />
            <mxPoint x="400" y="-1990.5" as="targetPoint" />
          </mxGeometry>
        </mxCell>
        <mxCell id="Z72RSEmDFO8z5NvwC8p4-3" value="Connect user&lt;div&gt;&lt;span style=&quot;background-color: initial;&quot;&gt;owned toolkit&lt;/span&gt;&lt;/div&gt;" style="ellipse;whiteSpace=wrap;html=1;" vertex="1" parent="1">
          <mxGeometry x="230" y="-1950" width="120" height="80" as="geometry" />
        </mxCell>
        <mxCell id="Z72RSEmDFO8z5NvwC8p4-4" value="extend" style="endArrow=open;endSize=12;dashed=1;html=1;rounded=0;entryX=0.298;entryY=0.971;entryDx=0;entryDy=0;entryPerimeter=0;" edge="1" parent="1" source="Z72RSEmDFO8z5NvwC8p4-3" target="OOLRp_xFaTdXaGMUtl8n-11">
          <mxGeometry width="160" relative="1" as="geometry">
            <mxPoint x="550" y="-1930" as="sourcePoint" />
            <mxPoint x="410" y="-1930" as="targetPoint" />
          </mxGeometry>
        </mxCell>
        <mxCell id="Z72RSEmDFO8z5NvwC8p4-5" value="" style="endArrow=classic;html=1;rounded=0;exitX=1.022;exitY=0.806;exitDx=0;exitDy=0;exitPerimeter=0;entryX=0.96;entryY=0.919;entryDx=0;entryDy=0;entryPerimeter=0;" edge="1" parent="1" source="EBcMu-_AQKdTez35xqux-105" target="EBcMu-_AQKdTez35xqux-105">
          <mxGeometry width="50" height="50" relative="1" as="geometry">
            <mxPoint x="555" y="1150.2200000000003" as="sourcePoint" />
            <mxPoint x="554" y="1225" as="targetPoint" />
            <Array as="points">
              <mxPoint x="625" y="1150" />
              <mxPoint x="625" y="1232" />
            </Array>
          </mxGeometry>
        </mxCell>
        <mxCell id="Z72RSEmDFO8z5NvwC8p4-6" value="process&amp;nbsp;&lt;div&gt;data&lt;/div&gt;" style="edgeLabel;html=1;align=center;verticalAlign=middle;resizable=0;points=[];" vertex="1" connectable="0" parent="Z72RSEmDFO8z5NvwC8p4-5">
          <mxGeometry x="-0.1101" y="1" relative="1" as="geometry">
            <mxPoint as="offset" />
          </mxGeometry>
        </mxCell>
        <mxCell id="Z72RSEmDFO8z5NvwC8p4-12" value="Yahoo! Finance&lt;div&gt;app&lt;br&gt;&lt;div&gt;&lt;br&gt;&lt;/div&gt;&lt;/div&gt;" style="shape=umlActor;verticalLabelPosition=bottom;verticalAlign=top;html=1;outlineConnect=0;" vertex="1" parent="1">
          <mxGeometry x="635" y="-2200" width="30" height="60" as="geometry" />
        </mxCell>
        <mxCell id="Z72RSEmDFO8z5NvwC8p4-16" value="" style="endArrow=classic;html=1;rounded=0;entryX=0.976;entryY=0.733;entryDx=0;entryDy=0;entryPerimeter=0;exitX=0;exitY=0.3333333333333333;exitDx=0;exitDy=0;exitPerimeter=0;" edge="1" parent="1" source="Z72RSEmDFO8z5NvwC8p4-12" target="OOLRp_xFaTdXaGMUtl8n-2">
          <mxGeometry width="50" height="50" relative="1" as="geometry">
            <mxPoint x="490" y="-2050" as="sourcePoint" />
            <mxPoint x="540" y="-2100" as="targetPoint" />
          </mxGeometry>
        </mxCell>
        <mxCell id="Z72RSEmDFO8z5NvwC8p4-20" value="1" style="edgeLabel;html=1;align=center;verticalAlign=middle;resizable=0;points=[];" vertex="1" connectable="0" parent="Z72RSEmDFO8z5NvwC8p4-16">
          <mxGeometry x="0.0162" relative="1" as="geometry">
            <mxPoint as="offset" />
          </mxGeometry>
        </mxCell>
        <mxCell id="Z72RSEmDFO8z5NvwC8p4-17" value="" style="endArrow=classic;html=1;rounded=0;entryX=1;entryY=0.5;entryDx=0;entryDy=0;exitX=0.5;exitY=0.5;exitDx=0;exitDy=0;exitPerimeter=0;" edge="1" parent="1" source="Z72RSEmDFO8z5NvwC8p4-12" target="OOLRp_xFaTdXaGMUtl8n-4">
          <mxGeometry width="50" height="50" relative="1" as="geometry">
            <mxPoint x="790" y="-2180" as="sourcePoint" />
            <mxPoint x="437" y="-2269" as="targetPoint" />
          </mxGeometry>
        </mxCell>
        <mxCell id="Z72RSEmDFO8z5NvwC8p4-21" value="1" style="edgeLabel;html=1;align=center;verticalAlign=middle;resizable=0;points=[];" vertex="1" connectable="0" parent="Z72RSEmDFO8z5NvwC8p4-17">
          <mxGeometry x="0.192" y="-2" relative="1" as="geometry">
            <mxPoint as="offset" />
          </mxGeometry>
        </mxCell>
        <mxCell id="Z72RSEmDFO8z5NvwC8p4-18" value="" style="endArrow=classic;html=1;rounded=0;entryX=0.976;entryY=0.215;entryDx=0;entryDy=0;entryPerimeter=0;exitX=0.5;exitY=0.5;exitDx=0;exitDy=0;exitPerimeter=0;" edge="1" parent="1" source="Z72RSEmDFO8z5NvwC8p4-12" target="OOLRp_xFaTdXaGMUtl8n-11">
          <mxGeometry width="50" height="50" relative="1" as="geometry">
            <mxPoint x="800" y="-2170" as="sourcePoint" />
            <mxPoint x="447" y="-2259" as="targetPoint" />
          </mxGeometry>
        </mxCell>
        <mxCell id="Z72RSEmDFO8z5NvwC8p4-22" value="1" style="edgeLabel;html=1;align=center;verticalAlign=middle;resizable=0;points=[];" vertex="1" connectable="0" parent="Z72RSEmDFO8z5NvwC8p4-18">
          <mxGeometry x="-0.0134" y="-1" relative="1" as="geometry">
            <mxPoint as="offset" />
          </mxGeometry>
        </mxCell>
      </root>
    </mxGraphModel>
  </diagram>
</mxfile>
